<svg xmlns="http://www.w3.org/2000/svg" viewBox="0 0 557.14 1212.54"><defs><style>.cls-1{fill:#1d365f;}.cls-2,.cls-42,.cls-43{fill:#fff;}.cls-3{fill:#525151;}.cls-4{fill:#9a916c;}.cls-5{fill:#ddb369;}.cls-6{fill:#f2b81d;}.cls-7{fill:none;}.cls-8{fill:#d8d0c4;}.cls-9{fill:#878787;}.cls-10{fill:#535360;}.cls-11{fill:#c0992f;}.cls-12{fill:#6a6c6a;}.cls-13{fill:#aba9a9;}.cls-14{fill:#e2d892;}.cls-15{fill:#272626;}.cls-16{fill:#fdf9f4;}.cls-17{fill:#e8e5e1;}.cls-18{fill:#706b60;}.cls-19{fill:#fff9ee;}.cls-20{fill:#c6c274;}.cls-21{fill:#bb9130;}.cls-22{fill:#fdf6ab;}.cls-23{fill:#424242;}.cls-24{fill:#424343;}.cls-25{fill:#454546;}.cls-26{fill:#a8a7a8;}.cls-27{fill:#292b27;}.cls-28{fill:#e6eaea;}.cls-29{fill:#7f857c;}.cls-30{fill:#faf4ea;}.cls-31{fill:#d32328;}.cls-32{fill:#535454;}.cls-33{fill:#b0a8a8;}.cls-34{fill:#cab860;}.cls-35{fill:#b59337;}.cls-36{fill:#d5cf73;}.cls-37{fill:#bc9236;}.cls-38{fill:#f9f5ee;}.cls-39{fill:#faf8f2;}.cls-40{fill:#fafbfa;}.cls-41{fill:#aca76f;}.cls-42,.cls-43,.cls-44,.cls-45{isolation:isolate;}.cls-42{font-size:22.1px;}.cls-42,.cls-43,.cls-45{font-family:OCRA;}.cls-43,.cls-45{font-size:21.56px;}.cls-45{fill:#010101;}</style></defs><title>dev_board_2.O_vertical</title><g id="Blue"><rect class="cls-1" x="-303.22" y="344.02" width="1167.39" height="560.96" rx="68.96" transform="translate(-344.02 904.98) rotate(-90)"/></g><g id="Trace"><rect class="cls-2" x="94.63" y="487.08" width="14.83" height="14.57"/><path class="cls-3" d="M106.23,1077.32v128.13a10.17,10.17,0,0,0,10,10.3l322.1.61a10.16,10.16,0,0,0,10-10.3V725.66a10.16,10.16,0,0,0-10-10.3H116.26a10.17,10.17,0,0,0-10,10.3Z"/><path class="cls-4" d="M104,735.42v17.35a.92.92,0,0,0,.93,1h8.31a.92.92,0,0,0,.93-1V735.42a.92.92,0,0,0-.93-.95h-8.31A.88.88,0,0,0,104,735.42Z"/><path class="cls-5" d="M94.08,729.39v19.38a1.28,1.28,0,0,0,1.26,1.29h9a1.27,1.27,0,0,0,1.25-1.29V729.39a1.27,1.27,0,0,0-1.25-1.29h-9A1.24,1.24,0,0,0,94.08,729.39Z"/><path class="cls-4" d="M104.12,761v17.34a.91.91,0,0,0,.92,1h8.32a.92.92,0,0,0,.92-1V761a.91.91,0,0,0-.92-1H105A1,1,0,0,0,104.12,761Z"/><path class="cls-5" d="M94.21,754.93v19.38a1.27,1.27,0,0,0,1.26,1.29h9a1.27,1.27,0,0,0,1.26-1.29V754.93a1.27,1.27,0,0,0-1.26-1.28h-9A1.27,1.27,0,0,0,94.21,754.93Z"/><path class="cls-4" d="M104.25,786.58v17.34a.91.91,0,0,0,.92,1h8.32a.91.91,0,0,0,.92-1V786.58a.91.91,0,0,0-.92-1h-8.32A.91.91,0,0,0,104.25,786.58Z"/><path class="cls-5" d="M94.35,780.55v19.38a1.26,1.26,0,0,0,1.25,1.28h9a1.27,1.27,0,0,0,1.26-1.28V780.55a1.27,1.27,0,0,0-1.26-1.29h-9A1.27,1.27,0,0,0,94.35,780.55Z"/><path class="cls-4" d="M104.45,812.12v17.35a.91.91,0,0,0,.92.95h8.32a.92.92,0,0,0,.92-.95V812.12a.92.92,0,0,0-.92-1h-8.32A.91.91,0,0,0,104.45,812.12Z"/><path class="cls-5" d="M94.48,806.16v19.38a1.26,1.26,0,0,0,1.25,1.28h9a1.27,1.27,0,0,0,1.25-1.28V806.16a1.27,1.27,0,0,0-1.25-1.29h-9A1.22,1.22,0,0,0,94.48,806.16Z"/><path class="cls-4" d="M104.58,837.73v17.35a.91.91,0,0,0,.92.95h8.32a.91.91,0,0,0,.92-.95V837.73a.91.91,0,0,0-.92-1H105.5A.88.88,0,0,0,104.58,837.73Z"/><path class="cls-5" d="M94.68,831.7v19.38a1.27,1.27,0,0,0,1.25,1.29h9a1.27,1.27,0,0,0,1.26-1.29V831.7a1.27,1.27,0,0,0-1.26-1.28h-9A1.26,1.26,0,0,0,94.68,831.7Z"/><path class="cls-4" d="M104.71,863.28v17.34a.91.91,0,0,0,.92,1H114a.91.91,0,0,0,.92-1V863.28a.91.91,0,0,0-.92-.95h-8.32A.92.92,0,0,0,104.71,863.28Z"/><path class="cls-5" d="M94.81,857.32v19.37A1.27,1.27,0,0,0,96.06,878h9a1.27,1.27,0,0,0,1.25-1.29V857.32a1.27,1.27,0,0,0-1.25-1.29h-9A1.23,1.23,0,0,0,94.81,857.32Z"/><path class="cls-4" d="M104.84,888.89v17.35a.91.91,0,0,0,.93.94h8.31a.91.91,0,0,0,.93-.94V888.89a.92.92,0,0,0-.93-.95h-8.31A1,1,0,0,0,104.84,888.89Z"/><path class="cls-5" d="M94.94,882.86v19.45a1.26,1.26,0,0,0,1.25,1.28h9a1.27,1.27,0,0,0,1.25-1.28V882.93a1.27,1.27,0,0,0-1.25-1.29h-9A1.21,1.21,0,0,0,94.94,882.86Z"/><path class="cls-4" d="M105,914.43v17.35a.92.92,0,0,0,.92,1h8.32a.91.91,0,0,0,.92-1V914.43a.9.9,0,0,0-.92-.94H106A.91.91,0,0,0,105,914.43Z"/><path class="cls-5" d="M95.07,908.47v19.38a1.27,1.27,0,0,0,1.26,1.29h9a1.27,1.27,0,0,0,1.25-1.29V908.47a1.27,1.27,0,0,0-1.25-1.29h-9A1.28,1.28,0,0,0,95.07,908.47Z"/><path class="cls-4" d="M105.17,940.05v17.34a.92.92,0,0,0,.93,1h8.31a.92.92,0,0,0,.93-1V940.05a.91.91,0,0,0-.93-.95H106.1A.91.91,0,0,0,105.17,940.05Z"/><path class="cls-5" d="M95.2,934v19.37a1.27,1.27,0,0,0,1.26,1.29h9a1.27,1.27,0,0,0,1.26-1.29V934a1.27,1.27,0,0,0-1.26-1.29h-9A1.33,1.33,0,0,0,95.2,934Z"/><path class="cls-4" d="M105.3,965.59v17.35a.91.91,0,0,0,.93.94h8.31a.91.91,0,0,0,.93-.94V965.59a.92.92,0,0,0-.93-1h-8.31A.92.92,0,0,0,105.3,965.59Z"/><path class="cls-5" d="M95.4,959.63V979a1.27,1.27,0,0,0,1.26,1.28h9A1.26,1.26,0,0,0,107,979V959.63a1.27,1.27,0,0,0-1.25-1.29h-9A1.23,1.23,0,0,0,95.4,959.63Z"/><path class="cls-4" d="M105.44,991.2v17.35a.91.91,0,0,0,.92,1h8.32a.92.92,0,0,0,.92-1V991.2a.92.92,0,0,0-.92-1h-8.32A1,1,0,0,0,105.44,991.2Z"/><path class="cls-5" d="M95.53,985.17v19.45a1.28,1.28,0,0,0,1.26,1.29h9a1.27,1.27,0,0,0,1.26-1.29V985.24a1.27,1.27,0,0,0-1.26-1.29h-9A1.18,1.18,0,0,0,95.53,985.17Z"/><path class="cls-4" d="M105.57,1016.75v17.34a.91.91,0,0,0,.92,1h8.32a.91.91,0,0,0,.92-1v-17.34a.91.91,0,0,0-.92-1h-8.32A1,1,0,0,0,105.57,1016.75Z"/><path class="cls-5" d="M95.67,1010.78v19.38a1.27,1.27,0,0,0,1.25,1.29h9a1.27,1.27,0,0,0,1.26-1.29v-19.38a1.27,1.27,0,0,0-1.26-1.28h-9A1.26,1.26,0,0,0,95.67,1010.78Z"/><path class="cls-4" d="M105.77,1042.36v17.34a.91.91,0,0,0,.92,1H115a.91.91,0,0,0,.92-1v-17.34a.92.92,0,0,0-.92-.95h-8.32A.91.91,0,0,0,105.77,1042.36Z"/><path class="cls-5" d="M95.8,1036.33v19.38a1.26,1.26,0,0,0,1.25,1.28h9a1.27,1.27,0,0,0,1.25-1.28v-19.38a1.27,1.27,0,0,0-1.25-1.29h-9A1.31,1.31,0,0,0,95.8,1036.33Z"/><path class="cls-4" d="M105.9,1067.9v17.35a.91.91,0,0,0,.92,1h8.32a.91.91,0,0,0,.92-1V1067.9a.91.91,0,0,0-.92-1h-8.32A1,1,0,0,0,105.9,1067.9Z"/><path class="cls-5" d="M96,1061.94v19.38a1.27,1.27,0,0,0,1.25,1.29h9a1.27,1.27,0,0,0,1.26-1.29v-19.38a1.27,1.27,0,0,0-1.26-1.29h-9A1.22,1.22,0,0,0,96,1061.94Z"/><path class="cls-6" d="M376.25,712.9v-14c0-.89.53-1.61,1.19-1.61h18.15c.66,0,1.19.72,1.19,1.61v14c0,.89-.53,1.61-1.19,1.61H377.44C376.78,714.51,376.25,713.79,376.25,712.9Z"/><path class="cls-4" d="M394.34,712.72v10.91c0,1-.6,1.7-1.26,1.7H376.32c-.73,0-1.26-.81-1.26-1.7V712.72c0-1,.6-1.7,1.26-1.7h16.76C393.74,711,394.34,711.74,394.34,712.72Z"/><path class="cls-6" d="M353.08,713.25V698.9c0-.92.53-1.65,1.19-1.65h18.15c.66,0,1.19.73,1.19,1.65v14.35c0,.92-.53,1.65-1.19,1.65H354.27C353.61,714.9,353.08,714.17,353.08,713.25Z"/><path class="cls-4" d="M371.17,713v11.15c0,1-.6,1.74-1.26,1.74H353.15c-.73,0-1.25-.83-1.25-1.74V713c0-1,.59-1.74,1.25-1.74h16.76C370.64,711.24,371.17,712.06,371.17,713Z"/><path class="cls-6" d="M328.6,712.75v-13.9c0-.89.52-1.6,1.18-1.6h18.16c.66,0,1.18.71,1.18,1.6v13.9c0,.88-.52,1.59-1.18,1.59H329.78C329.12,714.34,328.6,713.63,328.6,712.75Z"/><path class="cls-4" d="M346.68,712.57v10.8c0,1-.59,1.68-1.25,1.68H328.66c-.72,0-1.25-.79-1.25-1.68v-10.8c0-1,.59-1.68,1.25-1.68h16.77C346.09,710.89,346.68,711.68,346.68,712.57Z"/><path class="cls-6" d="M303.18,713.25V698.9c0-.92.53-1.65,1.19-1.65h18.15c.66,0,1.19.73,1.19,1.65v14.35c0,.92-.53,1.65-1.19,1.65H304.37C303.71,714.9,303.18,714.17,303.18,713.25Z"/><path class="cls-4" d="M321.27,713v11.15c0,1-.59,1.74-1.25,1.74H303.25c-.73,0-1.25-.83-1.25-1.74V713c0-1,.59-1.74,1.25-1.74H320C320.74,711.24,321.27,712.06,321.27,713Z"/><path class="cls-6" d="M279.88,713.1V698.88c0-.9.53-1.63,1.19-1.63h18.15c.66,0,1.19.73,1.19,1.63V713.1c0,.91-.53,1.63-1.19,1.63H281.07C280.41,714.73,279.88,714,279.88,713.1Z"/><path class="cls-4" d="M298,712.83v11c0,1-.6,1.72-1.26,1.72H280c-.73,0-1.26-.82-1.26-1.72v-11c0-1,.6-1.72,1.26-1.72h16.76C297.44,711.11,298,711.92,298,712.83Z"/><path class="cls-6" d="M256.78,713.35V698.91c0-.92.53-1.66,1.19-1.66h18.15c.66,0,1.19.74,1.19,1.66v14.44c0,.92-.53,1.66-1.19,1.66H258C257.31,715,256.78,714.27,256.78,713.35Z"/><path class="cls-4" d="M274.87,713.17v11.22c0,1-.6,1.75-1.26,1.75H256.85c-.73,0-1.25-.83-1.25-1.75V713.17c0-1,.59-1.75,1.25-1.75h16.76C274.27,711.42,274.87,712.16,274.87,713.17Z"/><path class="cls-6" d="M232.43,713.67V698.94c0-.94.53-1.69,1.19-1.69h18.15c.66,0,1.18.75,1.18,1.69v14.73c0,.94-.52,1.69-1.18,1.69H233.62C233,715.36,232.43,714.61,232.43,713.67Z"/><path class="cls-4" d="M250.51,713.39v11.44c0,1-.59,1.78-1.25,1.78H232.49c-.72,0-1.25-.84-1.25-1.78V713.39c0-1,.59-1.79,1.25-1.79h16.77C249.92,711.6,250.51,712.45,250.51,713.39Z"/><path class="cls-6" d="M209.06,713.5V698.92c0-.92.53-1.67,1.19-1.67H228.4c.66,0,1.19.75,1.19,1.67V713.5c0,.93-.53,1.67-1.19,1.67H210.25C209.59,715.17,209.06,714.43,209.06,713.5Z"/><path class="cls-4" d="M227.21,713.32v11.32c0,1-.59,1.77-1.25,1.77H209.19c-.72,0-1.25-.84-1.25-1.77V713.32c0-1,.59-1.77,1.25-1.77H226C226.62,711.55,227.21,712.3,227.21,713.32Z"/><path class="cls-6" d="M184.57,713.25V698.9c0-.92.53-1.65,1.19-1.65h18.15c.66,0,1.19.73,1.19,1.65v14.35c0,.92-.53,1.65-1.19,1.65H185.76C185.1,714.9,184.57,714.17,184.57,713.25Z"/><path class="cls-4" d="M202.66,713v11.15c0,1-.59,1.74-1.25,1.74H184.64c-.73,0-1.25-.83-1.25-1.74V713c0-1,.59-1.74,1.25-1.74h16.77C202.07,711.24,202.66,712.06,202.66,713Z"/><path class="cls-6" d="M160,715.33V699.11c0-1,.53-1.86,1.19-1.86h18.15c.66,0,1.19.83,1.19,1.86v16.22c0,1-.53,1.86-1.19,1.86H161.21C160.55,717.19,160,716.37,160,715.33Z"/><path class="cls-4" d="M178.11,715.84v8.27a1.27,1.27,0,0,1-1.26,1.28H160.09a1.27,1.27,0,0,1-1.26-1.28v-8.27a1.27,1.27,0,0,1,1.26-1.29h16.76A1.23,1.23,0,0,1,178.11,715.84Z"/><path class="cls-4" d="M450.37,730v17.35a.9.9,0,0,1-.92.94h-8.38a.91.91,0,0,1-.93-.94V730a.92.92,0,0,1,.93-1h8.31A.93.93,0,0,1,450.37,730Z"/><path class="cls-5" d="M460.27,724v19.38a1.27,1.27,0,0,1-1.25,1.29h-9a1.27,1.27,0,0,1-1.26-1.29V724a1.27,1.27,0,0,1,1.26-1.29h9A1.27,1.27,0,0,1,460.27,724Z"/><path class="cls-4" d="M450.24,755.61v17.28a.91.91,0,0,1-.92,1H441a.91.91,0,0,1-.92-1V755.54a.9.9,0,0,1,.92-.94h8.32A1,1,0,0,1,450.24,755.61Z"/><path class="cls-5" d="M460.14,749.58V769a1.27,1.27,0,0,1-1.25,1.29h-9a1.27,1.27,0,0,1-1.26-1.29V749.58a1.28,1.28,0,0,1,1.26-1.29h9A1.27,1.27,0,0,1,460.14,749.58Z"/><path class="cls-4" d="M450,781.16V798.5a.91.91,0,0,1-.92,1H440.8a.92.92,0,0,1-.92-1V781.16a.91.91,0,0,1,.92-.95h8.32A.91.91,0,0,1,450,781.16Z"/><path class="cls-5" d="M460,775.13v19.44a1.27,1.27,0,0,1-1.25,1.29h-9.05a1.27,1.27,0,0,1-1.25-1.29V775.19a1.26,1.26,0,0,1,1.25-1.28h9.05A1.21,1.21,0,0,1,460,775.13Z"/><path class="cls-4" d="M449.91,806.77v17.34a.91.91,0,0,1-.92.95h-8.32a.91.91,0,0,1-.92-.95V806.77a.91.91,0,0,1,.92-.95H449A.87.87,0,0,1,449.91,806.77Z"/><path class="cls-5" d="M459.88,800.74v19.38a1.27,1.27,0,0,1-1.26,1.28h-9a1.27,1.27,0,0,1-1.25-1.28V800.74a1.27,1.27,0,0,1,1.25-1.29h9A1.27,1.27,0,0,1,459.88,800.74Z"/><path class="cls-4" d="M449.78,832.31v17.35a.92.92,0,0,1-.92,1h-8.32a.91.91,0,0,1-.92-1V832.31a.91.91,0,0,1,.92-.95h8.32A.92.92,0,0,1,449.78,832.31Z"/><path class="cls-5" d="M459.68,826.28v19.38a1.27,1.27,0,0,1-1.25,1.29h-9.05a1.27,1.27,0,0,1-1.25-1.29V826.28a1.26,1.26,0,0,1,1.25-1.28h9.05A1.26,1.26,0,0,1,459.68,826.28Z"/><path class="cls-4" d="M449.65,857.92V875.2a.92.92,0,0,1-.93.95h-8.31a.92.92,0,0,1-.93-.95V857.86a.92.92,0,0,1,.93-1h8.31A1,1,0,0,1,449.65,857.92Z"/><path class="cls-5" d="M459.55,851.89v19.38a1.27,1.27,0,0,1-1.26,1.29h-9a1.27,1.27,0,0,1-1.25-1.29V851.89a1.26,1.26,0,0,1,1.25-1.28h9A1.23,1.23,0,0,1,459.55,851.89Z"/><path class="cls-4" d="M449.52,883.47v17.34a.91.91,0,0,1-.93,1h-8.31a.91.91,0,0,1-.93-1V883.47a.92.92,0,0,1,.93-1h8.31A1,1,0,0,1,449.52,883.47Z"/><path class="cls-5" d="M459.42,877.51v19.37a1.27,1.27,0,0,1-1.26,1.29h-9a1.27,1.27,0,0,1-1.25-1.29V877.51a1.27,1.27,0,0,1,1.25-1.29h9A1.23,1.23,0,0,1,459.42,877.51Z"/><path class="cls-4" d="M449.32,909.08v17.35a.92.92,0,0,1-.93,1h-8.31a.92.92,0,0,1-.93-1V909.08a.92.92,0,0,1,.93-1h8.31A.88.88,0,0,1,449.32,909.08Z"/><path class="cls-5" d="M459.28,903.05v19.38a1.27,1.27,0,0,1-1.25,1.29h-9a1.27,1.27,0,0,1-1.26-1.29V903.05a1.28,1.28,0,0,1,1.26-1.29h9A1.31,1.31,0,0,1,459.28,903.05Z"/><path class="cls-4" d="M449.19,934.63V952a.92.92,0,0,1-.93.95H440A.92.92,0,0,1,439,952V934.63a.91.91,0,0,1,.93-1h8.31A.91.91,0,0,1,449.19,934.63Z"/><path class="cls-5" d="M459.09,928.66V948a1.27,1.27,0,0,1-1.26,1.29h-9a1.27,1.27,0,0,1-1.25-1.29V928.66a1.26,1.26,0,0,1,1.25-1.28h9A1.19,1.19,0,0,1,459.09,928.66Z"/><path class="cls-4" d="M449.05,960.24v17.28a.9.9,0,0,1-.92.94h-8.38a.91.91,0,0,1-.93-.94V960.17a.92.92,0,0,1,.93-.95h8.31A1,1,0,0,1,449.05,960.24Z"/><path class="cls-5" d="M459,954.21v19.38a1.26,1.26,0,0,1-1.25,1.28h-9a1.27,1.27,0,0,1-1.26-1.28V954.21a1.27,1.27,0,0,1,1.26-1.29h9A1.27,1.27,0,0,1,459,954.21Z"/><path class="cls-4" d="M448.92,985.78v17.35a.91.91,0,0,1-.92,1h-8.32a.91.91,0,0,1-.92-1V985.78a.91.91,0,0,1,.92-.95H448A1,1,0,0,1,448.92,985.78Z"/><path class="cls-5" d="M458.82,979.82V999.2a1.26,1.26,0,0,1-1.25,1.28h-9a1.27,1.27,0,0,1-1.26-1.28V979.82a1.27,1.27,0,0,1,1.26-1.29h9A1.27,1.27,0,0,1,458.82,979.82Z"/><path class="cls-4" d="M448.72,1011.39v17.35a.91.91,0,0,1-.92,1h-8.32a.92.92,0,0,1-.92-1v-17.35a.91.91,0,0,1,.92-.94h8.32A.9.9,0,0,1,448.72,1011.39Z"/><path class="cls-5" d="M458.69,1005.36v19.38a1.27,1.27,0,0,1-1.25,1.29h-9.05a1.27,1.27,0,0,1-1.25-1.29v-19.38a1.26,1.26,0,0,1,1.25-1.28h9.05A1.31,1.31,0,0,1,458.69,1005.36Z"/><path class="cls-4" d="M448.59,1036.94v17.34a.91.91,0,0,1-.92,1h-8.32a.91.91,0,0,1-.92-1v-17.34a.91.91,0,0,1,.92-1h8.32A.91.91,0,0,1,448.59,1036.94Z"/><path class="cls-5" d="M458.56,1031v19.37a1.27,1.27,0,0,1-1.26,1.29h-9a1.27,1.27,0,0,1-1.25-1.29V1031a1.27,1.27,0,0,1,1.25-1.29h9A1.27,1.27,0,0,1,458.56,1031Z"/><path class="cls-4" d="M448.46,1062.55v17.28a.92.92,0,0,1-.92,1h-8.32a.91.91,0,0,1-.92-1v-17.35a.91.91,0,0,1,.92-1h8.32A1,1,0,0,1,448.46,1062.55Z"/><path class="cls-5" d="M458.36,1056.52v19.38a1.27,1.27,0,0,1-1.25,1.29h-9.05a1.27,1.27,0,0,1-1.25-1.29v-19.38a1.27,1.27,0,0,1,1.25-1.29h9.05A1.27,1.27,0,0,1,458.36,1056.52Z"/><rect class="cls-7" x="98.97" y="699.44" width="58.41" height="466.37"/><path class="cls-8" d="M436.7,756.92v329.64a10.6,10.6,0,0,1-10.58,10.58H141.38A19.42,19.42,0,0,1,122,1077.73V756.92a10.6,10.6,0,0,1,10.57-10.58H426.12A10.56,10.56,0,0,1,436.7,756.92Z"/><polygon class="cls-9" points="135.68 1102.59 135.68 1208.2 235.15 1207.8 235.15 1125.56 268.62 1125.3 268.62 1208.2 329.87 1208.2 329.87 1125.43 364.85 1125.03 364.06 1208.2 425.44 1208.2 425.11 1104.64 410.79 1104.64 411.32 1194.01 377.26 1193.74 377.52 1111.83 315.48 1111.43 315.48 1194.27 282.21 1194.14 281.95 1112.23 220.7 1112.1 220.7 1194.14 190.53 1194.01 191.06 1104.64 176.28 1104.64 175.49 1193.88 149.54 1194.01 149.81 1104.64 135.68 1102.59"/><path class="cls-7" d="M305.36,628.7c-.26-.45,0-23.09,0-23.09H280.59V628"/><path class="cls-2" d="M310.69,601.82v25.4a1.45,1.45,0,0,1-1.48,1.48H276.35a1.45,1.45,0,0,1-1.48-1.48v-25.4a1.45,1.45,0,0,1,1.48-1.48h32.86A1.45,1.45,0,0,1,310.69,601.82Z"/><polyline class="cls-7" points="280.59 657.84 305.36 657.84 305.36 657.84 280.59 657.84 280.59 634.43"/><path class="cls-2" d="M310.89,635.71V661.5a1.23,1.23,0,0,1-1.23,1.23H276.41a1.22,1.22,0,0,1-1.22-1.23V634.43h34.47A1.27,1.27,0,0,1,310.89,635.71Z"/><rect class="cls-2" x="287.15" y="642.92" width="15.63" height="6.11"/><rect class="cls-2" x="287.15" y="616.8" width="15.63" height="5.66"/><path class="cls-4" d="M306.06,608.18V626.9a1.79,1.79,0,0,1-1.8,1.8H281.69a1.79,1.79,0,0,1-1.8-1.8V608.18a1.8,1.8,0,0,1,1.8-1.8h22.57A1.76,1.76,0,0,1,306.06,608.18Z"/><path class="cls-4" d="M306.06,636.23v18.71a1.83,1.83,0,0,1-1.8,1.8H281.69a1.83,1.83,0,0,1-1.8-1.8V636.23a1.83,1.83,0,0,1,1.8-1.8h22.57A1.83,1.83,0,0,1,306.06,636.23Z"/><rect class="cls-2" x="287.41" y="617.51" width="15.11" height="5.66"/><rect class="cls-2" x="287.67" y="642.92" width="15.11" height="5.66"/><path class="cls-10" d="M302.78,624.71v16.6a1.56,1.56,0,0,1-1.54,1.54h-12a1.57,1.57,0,0,1-1.54-1.54v-16.6a1.57,1.57,0,0,1,1.54-1.54h12A1.56,1.56,0,0,1,302.78,624.71Z"/><path class="cls-7" d="M263,630.18c-.26-.45,0-23.09,0-23.09H238.23v22.38"/><path class="cls-2" d="M268.33,603.3v25.4a1.45,1.45,0,0,1-1.48,1.48H234a1.46,1.46,0,0,1-1.48-1.48V603.3a1.46,1.46,0,0,1,1.48-1.48h32.87A1.45,1.45,0,0,1,268.33,603.3Z"/><polyline class="cls-7" points="238.23 659.32 262.99 659.32 262.99 659.32 238.23 659.32 238.23 635.9"/><path class="cls-2" d="M268.52,637.19V663a1.23,1.23,0,0,1-1.22,1.23H234.05a1.22,1.22,0,0,1-1.22-1.23V635.9H267.3A1.28,1.28,0,0,1,268.52,637.19Z"/><rect class="cls-2" x="244.79" y="644.4" width="15.63" height="6.11"/><rect class="cls-2" x="244.79" y="618.28" width="15.63" height="5.66"/><path class="cls-4" d="M263.7,609.66v18.72a1.8,1.8,0,0,1-1.8,1.8H239.32a1.8,1.8,0,0,1-1.8-1.8V609.66a1.8,1.8,0,0,1,1.8-1.8H261.9A1.76,1.76,0,0,1,263.7,609.66Z"/><path class="cls-4" d="M263.7,637.71v18.71a1.84,1.84,0,0,1-1.8,1.8H239.32a1.84,1.84,0,0,1-1.8-1.8V637.71a1.85,1.85,0,0,1,1.8-1.81H261.9A1.85,1.85,0,0,1,263.7,637.71Z"/><rect class="cls-2" x="245.05" y="618.99" width="15.11" height="5.66"/><rect class="cls-2" x="245.3" y="644.4" width="15.11" height="5.66"/><path class="cls-10" d="M260.42,626.19v16.6a1.57,1.57,0,0,1-1.55,1.54h-12a1.57,1.57,0,0,1-1.55-1.54v-16.6a1.57,1.57,0,0,1,1.55-1.54h12A1.57,1.57,0,0,1,260.42,626.19Z"/><path class="cls-7" d="M113.23,542.32c-.45.26-23.09,0-23.09,0v24.76h22.38"/><path class="cls-2" d="M86.35,537h25.4a1.46,1.46,0,0,1,1.48,1.48v32.87a1.46,1.46,0,0,1-1.48,1.48H86.35a1.46,1.46,0,0,1-1.48-1.48V538.46A1.46,1.46,0,0,1,86.35,537Z"/><polyline class="cls-7" points="142.37 567.08 142.37 542.32 142.37 542.32 142.37 567.08 118.96 567.08"/><path class="cls-2" d="M120.24,536.79H146a1.23,1.23,0,0,1,1.23,1.22v33.25a1.23,1.23,0,0,1-1.23,1.23H119V538A1.28,1.28,0,0,1,120.24,536.79Z"/><rect class="cls-2" x="127.45" y="544.89" width="6.11" height="15.63"/><rect class="cls-2" x="101.33" y="544.89" width="5.66" height="15.63"/><path class="cls-4" d="M92.71,541.61h18.72a1.8,1.8,0,0,1,1.8,1.8V566a1.8,1.8,0,0,1-1.8,1.8H92.71a1.8,1.8,0,0,1-1.8-1.8V543.41A1.76,1.76,0,0,1,92.71,541.61Z"/><path class="cls-4" d="M120.76,541.61h18.71a1.84,1.84,0,0,1,1.8,1.8V566a1.84,1.84,0,0,1-1.8,1.8H120.76A1.84,1.84,0,0,1,119,566V543.41A1.84,1.84,0,0,1,120.76,541.61Z"/><rect class="cls-2" x="102.04" y="545.15" width="5.66" height="15.11"/><rect class="cls-2" x="127.45" y="544.89" width="5.66" height="15.11"/><path class="cls-10" d="M109.24,544.89h16.6a1.57,1.57,0,0,1,1.54,1.55v12a1.57,1.57,0,0,1-1.54,1.55h-16.6a1.57,1.57,0,0,1-1.54-1.55v-12A1.57,1.57,0,0,1,109.24,544.89Z"/><path class="cls-7" d="M182.92,542c-.46.26-23.1,0-23.1,0v24.76h22.39"/><path class="cls-2" d="M156,536.66h25.41a1.46,1.46,0,0,1,1.48,1.48V571a1.46,1.46,0,0,1-1.48,1.48H156a1.46,1.46,0,0,1-1.48-1.48V538.14A1.45,1.45,0,0,1,156,536.66Z"/><polyline class="cls-7" points="212.05 566.76 212.05 542 212.05 542 212.05 566.76 188.64 566.76"/><path class="cls-2" d="M189.93,536.47h25.79a1.22,1.22,0,0,1,1.22,1.22v33.25a1.22,1.22,0,0,1-1.22,1.22H188.64V537.69A1.28,1.28,0,0,1,189.93,536.47Z"/><rect class="cls-2" x="197.13" y="544.57" width="6.11" height="15.63"/><rect class="cls-2" x="171.02" y="544.57" width="5.66" height="15.63"/><path class="cls-4" d="M162.4,541.29h18.71a1.8,1.8,0,0,1,1.81,1.8v22.58a1.81,1.81,0,0,1-1.81,1.8H162.4a1.79,1.79,0,0,1-1.8-1.8V543.09A1.76,1.76,0,0,1,162.4,541.29Z"/><path class="cls-4" d="M190.44,541.29h18.72a1.85,1.85,0,0,1,1.8,1.8v22.58a1.85,1.85,0,0,1-1.8,1.8H190.44a1.85,1.85,0,0,1-1.8-1.8V543.09A1.85,1.85,0,0,1,190.44,541.29Z"/><rect class="cls-2" x="171.72" y="544.83" width="5.66" height="15.11"/><rect class="cls-2" x="197.13" y="544.57" width="5.66" height="15.11"/><path class="cls-10" d="M178.93,544.57h16.59a1.57,1.57,0,0,1,1.55,1.55v12a1.57,1.57,0,0,1-1.55,1.55H178.93a1.57,1.57,0,0,1-1.55-1.55v-12A1.57,1.57,0,0,1,178.93,544.57Z"/><path class="cls-7" d="M437.72,534.18c-.45.26-23.09,0-23.09,0V559H437"/><path class="cls-2" d="M410.83,528.85h25.41a1.46,1.46,0,0,1,1.48,1.48v32.86a1.46,1.46,0,0,1-1.48,1.48H410.83a1.46,1.46,0,0,1-1.48-1.48V530.33A1.46,1.46,0,0,1,410.83,528.85Z"/><polyline class="cls-7" points="466.85 558.95 466.85 534.18 466.85 534.18 466.85 558.95 443.44 558.95"/><path class="cls-2" d="M444.73,528.65h25.79a1.22,1.22,0,0,1,1.22,1.22v33.26a1.22,1.22,0,0,1-1.22,1.22H443.44V529.87A1.28,1.28,0,0,1,444.73,528.65Z"/><rect class="cls-2" x="451.93" y="536.76" width="6.11" height="15.63"/><rect class="cls-2" x="425.82" y="536.76" width="5.66" height="15.63"/><path class="cls-4" d="M417.2,533.48h18.72a1.8,1.8,0,0,1,1.8,1.8v22.57a1.79,1.79,0,0,1-1.8,1.8H417.2a1.79,1.79,0,0,1-1.8-1.8V535.28A1.76,1.76,0,0,1,417.2,533.48Z"/><path class="cls-4" d="M445.24,533.48H464a1.84,1.84,0,0,1,1.8,1.8v22.57a1.84,1.84,0,0,1-1.8,1.8H445.24a1.84,1.84,0,0,1-1.8-1.8V535.28A1.84,1.84,0,0,1,445.24,533.48Z"/><rect class="cls-2" x="426.53" y="537.01" width="5.66" height="15.11"/><rect class="cls-2" x="451.93" y="536.76" width="5.66" height="15.11"/><path class="cls-10" d="M433.73,536.76h16.59a1.56,1.56,0,0,1,1.55,1.54v12a1.57,1.57,0,0,1-1.55,1.54H433.73a1.56,1.56,0,0,1-1.54-1.54v-12A1.55,1.55,0,0,1,433.73,536.76Z"/><path class="cls-7" d="M438.52,584.16c-.45.26-23.09,0-23.09,0v24.77h22.38"/><path class="cls-2" d="M411.63,578.82H437a1.46,1.46,0,0,1,1.48,1.48v32.87a1.45,1.45,0,0,1-1.48,1.48H411.63a1.46,1.46,0,0,1-1.48-1.48V580.3A1.46,1.46,0,0,1,411.63,578.82Z"/><polyline class="cls-7" points="467.66 608.93 467.66 584.16 467.66 584.16 467.66 608.93 444.24 608.93"/><path class="cls-2" d="M445.53,578.63h25.79a1.22,1.22,0,0,1,1.22,1.22v33.26a1.22,1.22,0,0,1-1.22,1.22H444.24V579.85A1.28,1.28,0,0,1,445.53,578.63Z"/><rect class="cls-2" x="452.73" y="586.74" width="6.11" height="15.63"/><rect class="cls-2" x="426.62" y="586.74" width="5.66" height="15.63"/><path class="cls-4" d="M418,583.46h18.72a1.8,1.8,0,0,1,1.8,1.8v22.57a1.79,1.79,0,0,1-1.8,1.8H418a1.8,1.8,0,0,1-1.8-1.8V585.26A1.76,1.76,0,0,1,418,583.46Z"/><path class="cls-4" d="M446,583.46h18.72a1.83,1.83,0,0,1,1.8,1.8v22.57a1.83,1.83,0,0,1-1.8,1.8H446a1.84,1.84,0,0,1-1.8-1.8V585.26A1.84,1.84,0,0,1,446,583.46Z"/><rect class="cls-2" x="427.33" y="586.99" width="5.66" height="15.11"/><rect class="cls-2" x="452.73" y="586.74" width="5.66" height="15.11"/><path class="cls-10" d="M434.53,586.74h16.6a1.56,1.56,0,0,1,1.54,1.54v12a1.57,1.57,0,0,1-1.54,1.54h-16.6a1.57,1.57,0,0,1-1.54-1.54v-12A1.56,1.56,0,0,1,434.53,586.74Z"/><path class="cls-7" d="M438.52,632.24c-.45.26-23.09,0-23.09,0V657h22.38"/><path class="cls-2" d="M411.63,626.91H437a1.45,1.45,0,0,1,1.48,1.48v32.86a1.45,1.45,0,0,1-1.48,1.48H411.63a1.46,1.46,0,0,1-1.48-1.48V628.39A1.46,1.46,0,0,1,411.63,626.91Z"/><polyline class="cls-7" points="467.66 657.01 467.66 632.24 467.66 632.24 467.66 657.01 444.24 657.01"/><path class="cls-2" d="M445.53,626.71h25.79a1.22,1.22,0,0,1,1.22,1.22v33.26a1.21,1.21,0,0,1-1.22,1.22H444.24V627.93A1.28,1.28,0,0,1,445.53,626.71Z"/><rect class="cls-2" x="452.73" y="634.82" width="6.11" height="15.63"/><rect class="cls-2" x="426.62" y="634.82" width="5.66" height="15.63"/><path class="cls-4" d="M418,631.54h18.72a1.8,1.8,0,0,1,1.8,1.8v22.57a1.79,1.79,0,0,1-1.8,1.8H418a1.8,1.8,0,0,1-1.8-1.8V633.34A1.76,1.76,0,0,1,418,631.54Z"/><path class="cls-4" d="M446,631.54h18.72a1.83,1.83,0,0,1,1.8,1.8v22.57a1.83,1.83,0,0,1-1.8,1.8H446a1.84,1.84,0,0,1-1.8-1.8V633.34A1.84,1.84,0,0,1,446,631.54Z"/><rect class="cls-2" x="427.33" y="635.07" width="5.66" height="15.11"/><rect class="cls-2" x="452.73" y="634.82" width="5.66" height="15.11"/><path class="cls-10" d="M434.53,634.82h16.6a1.56,1.56,0,0,1,1.54,1.54v12a1.57,1.57,0,0,1-1.54,1.54h-16.6a1.57,1.57,0,0,1-1.54-1.54v-12A1.56,1.56,0,0,1,434.53,634.82Z"/><path class="cls-7" d="M323.5,368.7c-.25-.45,0-23.09,0-23.09H298.74V368"/><path class="cls-2" d="M328.84,341.82v25.4a1.45,1.45,0,0,1-1.48,1.48H294.5a1.45,1.45,0,0,1-1.48-1.48v-25.4a1.45,1.45,0,0,1,1.48-1.48h32.86A1.45,1.45,0,0,1,328.84,341.82Z"/><polyline class="cls-7" points="298.74 397.84 323.5 397.84 323.5 397.84 298.74 397.84 298.74 374.43"/><path class="cls-2" d="M329,375.71v25.8a1.23,1.23,0,0,1-1.23,1.22H294.56a1.22,1.22,0,0,1-1.22-1.22V374.43h34.47A1.28,1.28,0,0,1,329,375.71Z"/><rect class="cls-2" x="305.3" y="382.92" width="15.63" height="6.11"/><rect class="cls-2" x="305.3" y="356.81" width="15.63" height="5.66"/><path class="cls-4" d="M324.21,348.19V366.9a1.79,1.79,0,0,1-1.8,1.8H299.83a1.8,1.8,0,0,1-1.8-1.8V348.19a1.8,1.8,0,0,1,1.8-1.8h22.58A1.76,1.76,0,0,1,324.21,348.19Z"/><path class="cls-4" d="M324.21,376.23V395a1.84,1.84,0,0,1-1.8,1.8H299.83A1.85,1.85,0,0,1,298,395V376.23a1.84,1.84,0,0,1,1.8-1.8h22.58A1.83,1.83,0,0,1,324.21,376.23Z"/><rect class="cls-2" x="305.56" y="357.51" width="15.11" height="5.66"/><rect class="cls-2" x="305.82" y="382.92" width="15.11" height="5.66"/><path class="cls-10" d="M320.93,364.72v16.59a1.56,1.56,0,0,1-1.54,1.54h-12a1.55,1.55,0,0,1-1.54-1.54V364.72a1.56,1.56,0,0,1,1.54-1.55h12A1.57,1.57,0,0,1,320.93,364.72Z"/><path class="cls-7" d="M217.52,334.81c-.26-.45,0-23.09,0-23.09H192.76V334.1"/><path class="cls-2" d="M222.86,307.92v25.41a1.46,1.46,0,0,1-1.48,1.48H188.51a1.46,1.46,0,0,1-1.48-1.48V307.92a1.46,1.46,0,0,1,1.48-1.48h32.87A1.46,1.46,0,0,1,222.86,307.92Z"/><polyline class="cls-7" points="192.76 363.94 217.52 363.94 217.52 363.94 192.76 363.94 192.76 340.53"/><path class="cls-2" d="M223.05,341.82v25.79a1.22,1.22,0,0,1-1.22,1.22H188.58a1.23,1.23,0,0,1-1.23-1.22V340.53h34.48A1.28,1.28,0,0,1,223.05,341.82Z"/><rect class="cls-2" x="199.32" y="349.02" width="15.63" height="6.11"/><rect class="cls-2" x="199.32" y="322.91" width="15.63" height="5.66"/><path class="cls-4" d="M218.23,314.29V333a1.81,1.81,0,0,1-1.8,1.8H193.85a1.79,1.79,0,0,1-1.8-1.8V314.29a1.8,1.8,0,0,1,1.8-1.8h22.58A1.76,1.76,0,0,1,218.23,314.29Z"/><path class="cls-4" d="M218.23,342.33v18.72a1.84,1.84,0,0,1-1.8,1.8H193.85a1.83,1.83,0,0,1-1.8-1.8V342.33a1.84,1.84,0,0,1,1.8-1.8h22.58A1.85,1.85,0,0,1,218.23,342.33Z"/><rect class="cls-2" x="199.57" y="323.62" width="15.11" height="5.66"/><rect class="cls-2" x="199.83" y="349.02" width="15.11" height="5.66"/><path class="cls-10" d="M215,330.82v16.59A1.57,1.57,0,0,1,213.4,349h-12a1.57,1.57,0,0,1-1.54-1.55V330.82a1.56,1.56,0,0,1,1.54-1.54h12A1.56,1.56,0,0,1,215,330.82Z"/><path class="cls-7" d="M181.21,334.68c-.26-.45,0-23.09,0-23.09H156.45V334"/><path class="cls-2" d="M186.55,307.79V333.2a1.45,1.45,0,0,1-1.48,1.48H152.2a1.46,1.46,0,0,1-1.48-1.48V307.79a1.46,1.46,0,0,1,1.48-1.48h32.87A1.46,1.46,0,0,1,186.55,307.79Z"/><polyline class="cls-7" points="156.45 363.82 181.21 363.82 181.21 363.82 156.45 363.82 156.45 340.4"/><path class="cls-2" d="M186.74,341.69v25.79a1.22,1.22,0,0,1-1.22,1.22H152.27a1.21,1.21,0,0,1-1.22-1.22V340.4h34.47A1.28,1.28,0,0,1,186.74,341.69Z"/><rect class="cls-2" x="163.01" y="348.89" width="15.63" height="6.11"/><rect class="cls-2" x="163.01" y="322.78" width="15.63" height="5.66"/><path class="cls-4" d="M181.92,314.16v18.72a1.8,1.8,0,0,1-1.8,1.8H157.54a1.8,1.8,0,0,1-1.8-1.8V314.16a1.8,1.8,0,0,1,1.8-1.8h22.58A1.76,1.76,0,0,1,181.92,314.16Z"/><path class="cls-4" d="M181.92,342.2v18.72a1.84,1.84,0,0,1-1.8,1.8H157.54a1.84,1.84,0,0,1-1.8-1.8V342.2a1.85,1.85,0,0,1,1.8-1.8h22.58A1.85,1.85,0,0,1,181.92,342.2Z"/><rect class="cls-2" x="163.27" y="323.49" width="15.11" height="5.66"/><rect class="cls-2" x="163.52" y="348.89" width="15.11" height="5.66"/><path class="cls-10" d="M178.64,330.69v16.6a1.57,1.57,0,0,1-1.55,1.54h-12a1.57,1.57,0,0,1-1.55-1.54v-16.6a1.57,1.57,0,0,1,1.55-1.54h12A1.57,1.57,0,0,1,178.64,330.69Z"/><path class="cls-7" d="M117.35,334.68c-.26-.45,0-23.09,0-23.09H92.59V334"/><path class="cls-2" d="M122.69,307.79V333.2a1.46,1.46,0,0,1-1.48,1.48H88.34a1.45,1.45,0,0,1-1.48-1.48V307.79a1.46,1.46,0,0,1,1.48-1.48h32.87A1.46,1.46,0,0,1,122.69,307.79Z"/><polyline class="cls-7" points="92.58 363.82 117.35 363.82 117.35 363.82 92.58 363.82 92.58 340.4"/><path class="cls-2" d="M122.88,341.69v25.79a1.22,1.22,0,0,1-1.22,1.22H88.4a1.22,1.22,0,0,1-1.22-1.22V340.4h34.48A1.28,1.28,0,0,1,122.88,341.69Z"/><rect class="cls-2" x="99.15" y="348.89" width="15.63" height="6.11"/><rect class="cls-2" x="99.15" y="322.78" width="15.63" height="5.66"/><path class="cls-4" d="M118.06,314.16v18.72a1.81,1.81,0,0,1-1.81,1.8H93.68a1.79,1.79,0,0,1-1.8-1.8V314.16a1.8,1.8,0,0,1,1.8-1.8h22.57A1.76,1.76,0,0,1,118.06,314.16Z"/><path class="cls-4" d="M118.06,342.2v18.72a1.84,1.84,0,0,1-1.81,1.8H93.68a1.83,1.83,0,0,1-1.8-1.8V342.2a1.84,1.84,0,0,1,1.8-1.8h22.57A1.85,1.85,0,0,1,118.06,342.2Z"/><rect class="cls-2" x="99.4" y="323.49" width="15.11" height="5.66"/><rect class="cls-2" x="99.66" y="348.89" width="15.11" height="5.66"/><path class="cls-10" d="M114.78,330.69v16.6a1.57,1.57,0,0,1-1.55,1.54h-12a1.57,1.57,0,0,1-1.54-1.54v-16.6a1.57,1.57,0,0,1,1.54-1.54h12A1.57,1.57,0,0,1,114.78,330.69Z"/><path class="cls-7" d="M366.34,256.08c-.26-.45,0-23.09,0-23.09H341.58v22.38"/><path class="cls-2" d="M371.68,229.19V254.6a1.46,1.46,0,0,1-1.48,1.48H337.33a1.46,1.46,0,0,1-1.48-1.48V229.19a1.46,1.46,0,0,1,1.48-1.47H370.2A1.46,1.46,0,0,1,371.68,229.19Z"/><polyline class="cls-7" points="341.58 285.22 366.34 285.22 366.34 285.22 341.58 285.22 341.58 261.8"/><path class="cls-2" d="M371.87,263.09v25.79a1.22,1.22,0,0,1-1.22,1.22H337.4a1.22,1.22,0,0,1-1.23-1.22V261.8h34.48A1.28,1.28,0,0,1,371.87,263.09Z"/><rect class="cls-2" x="348.14" y="270.29" width="15.63" height="6.11"/><rect class="cls-2" x="348.14" y="244.18" width="15.63" height="5.66"/><path class="cls-4" d="M367.05,235.56v18.72a1.81,1.81,0,0,1-1.8,1.8H342.67a1.8,1.8,0,0,1-1.8-1.8V235.56a1.8,1.8,0,0,1,1.8-1.8h22.58A1.76,1.76,0,0,1,367.05,235.56Z"/><path class="cls-4" d="M367.05,263.61v18.71a1.84,1.84,0,0,1-1.8,1.8H342.67a1.84,1.84,0,0,1-1.8-1.8V263.61a1.85,1.85,0,0,1,1.8-1.81h22.58A1.85,1.85,0,0,1,367.05,263.61Z"/><rect class="cls-2" x="348.39" y="244.89" width="15.11" height="5.66"/><rect class="cls-2" x="348.65" y="270.29" width="15.11" height="5.66"/><path class="cls-10" d="M363.77,252.09v16.6a1.57,1.57,0,0,1-1.55,1.54h-12a1.57,1.57,0,0,1-1.55-1.54v-16.6a1.57,1.57,0,0,1,1.55-1.54h12A1.57,1.57,0,0,1,363.77,252.09Z"/><path class="cls-7" d="M245.13,258.86c-.25-.45,0-23.09,0-23.09H220.37v22.38"/><path class="cls-2" d="M250.47,232v25.4a1.45,1.45,0,0,1-1.48,1.48H216.13a1.45,1.45,0,0,1-1.48-1.48V232a1.45,1.45,0,0,1,1.48-1.48H249A1.45,1.45,0,0,1,250.47,232Z"/><polyline class="cls-7" points="220.37 288 245.13 288 245.13 288 220.37 288 220.37 264.58"/><path class="cls-2" d="M250.67,265.87v25.79a1.23,1.23,0,0,1-1.23,1.23H216.19a1.22,1.22,0,0,1-1.22-1.23V264.58h34.47A1.28,1.28,0,0,1,250.67,265.87Z"/><rect class="cls-2" x="226.93" y="273.07" width="15.63" height="6.11"/><rect class="cls-2" x="226.93" y="246.96" width="15.63" height="5.66"/><path class="cls-4" d="M245.84,238.34v18.72a1.8,1.8,0,0,1-1.8,1.8H221.46a1.8,1.8,0,0,1-1.8-1.8V238.34a1.81,1.81,0,0,1,1.8-1.8H244A1.76,1.76,0,0,1,245.84,238.34Z"/><path class="cls-4" d="M245.84,266.39V285.1a1.83,1.83,0,0,1-1.8,1.8H221.46a1.84,1.84,0,0,1-1.8-1.8V266.39a1.85,1.85,0,0,1,1.8-1.81H244A1.84,1.84,0,0,1,245.84,266.39Z"/><rect class="cls-2" x="227.19" y="247.67" width="15.11" height="5.66"/><rect class="cls-2" x="227.45" y="273.07" width="15.11" height="5.66"/><path class="cls-10" d="M242.56,254.87v16.6A1.57,1.57,0,0,1,241,273H229a1.56,1.56,0,0,1-1.54-1.54v-16.6a1.56,1.56,0,0,1,1.54-1.54h12A1.57,1.57,0,0,1,242.56,254.87Z"/><path class="cls-7" d="M343.76,632.51c-.2-.4,0-21,0-21H322.93v20.43"/><path class="cls-2" d="M348.19,610.62v17.92a4,4,0,0,1-4,4H322.07a4,4,0,0,1-4-4V610.62a4,4,0,0,1,4-4h22.15A4,4,0,0,1,348.19,610.62Z"/><polyline class="cls-7" points="322.93 659.02 343.76 659.02 343.76 659.02 322.93 659.02 322.93 637.73"/><path class="cls-2" d="M348.32,641.3V660a3.67,3.67,0,0,1-3.64,3.64H321.8a3.53,3.53,0,0,1-3.5-3.5V637.86h26.52A3.36,3.36,0,0,1,348.32,641.3Z"/><rect class="cls-2" x="328.42" y="645.47" width="13.09" height="5.55"/><rect class="cls-2" x="328.42" y="621.73" width="13.09" height="5.16"/><path class="cls-4" d="M344.29,614v16.66a1.86,1.86,0,0,1-1.86,1.86H324.12a1.85,1.85,0,0,1-1.85-1.86V614a1.85,1.85,0,0,1,1.85-1.85h18.31A1.9,1.9,0,0,1,344.29,614Z"/><path class="cls-4" d="M344.29,639.58v16.6a1.89,1.89,0,0,1-1.86,1.85H324.18a1.89,1.89,0,0,1-1.85-1.85v-16.6a1.89,1.89,0,0,1,1.85-1.85h18.25A1.85,1.85,0,0,1,344.29,639.58Z"/><rect class="cls-2" x="328.61" y="622.32" width="12.7" height="5.16"/><rect class="cls-2" x="328.81" y="645.47" width="12.7" height="5.16"/><path class="cls-11" d="M341.51,629.07v14.81a1.61,1.61,0,0,1-1.59,1.59H327.23a1.61,1.61,0,0,1-1.59-1.59V629.07a1.61,1.61,0,0,1,1.59-1.59h12.69A1.57,1.57,0,0,1,341.51,629.07Z"/><path class="cls-7" d="M382.82,632.51c-.2-.4,0-21,0-21H362v20.43"/><path class="cls-2" d="M387.25,610.62v17.92a4,4,0,0,1-4,4H361.13a4,4,0,0,1-4-4V610.62a4,4,0,0,1,4-4h22.15A4,4,0,0,1,387.25,610.62Z"/><polyline class="cls-7" points="361.99 659.02 382.82 659.02 382.82 659.02 361.99 659.02 361.99 637.73"/><path class="cls-2" d="M387.38,641.3V660a3.66,3.66,0,0,1-3.63,3.64H360.87a3.53,3.53,0,0,1-3.51-3.5V637.86h26.52A3.35,3.35,0,0,1,387.38,641.3Z"/><rect class="cls-2" x="367.48" y="645.47" width="13.09" height="5.55"/><rect class="cls-2" x="367.48" y="621.73" width="13.09" height="5.16"/><path class="cls-4" d="M383.35,614v16.66a1.85,1.85,0,0,1-1.85,1.86H363.18a1.85,1.85,0,0,1-1.85-1.86V614a1.85,1.85,0,0,1,1.85-1.85H381.5A1.89,1.89,0,0,1,383.35,614Z"/><path class="cls-4" d="M383.35,639.58v16.6A1.89,1.89,0,0,1,381.5,658H363.25a1.89,1.89,0,0,1-1.85-1.85v-16.6a1.89,1.89,0,0,1,1.85-1.85H381.5A1.85,1.85,0,0,1,383.35,639.58Z"/><rect class="cls-2" x="367.68" y="622.32" width="12.7" height="5.16"/><rect class="cls-2" x="367.88" y="645.47" width="12.7" height="5.16"/><path class="cls-11" d="M380.57,629.07v14.81a1.61,1.61,0,0,1-1.58,1.59h-12.7a1.61,1.61,0,0,1-1.59-1.59V629.07a1.61,1.61,0,0,1,1.59-1.59H379A1.57,1.57,0,0,1,380.57,629.07Z"/><path class="cls-7" d="M398.36,254.06c-.2-.4,0-21,0-21H377.53v20.43"/><path class="cls-2" d="M402.79,232.17v17.92a4,4,0,0,1-4,4H376.67a4,4,0,0,1-4-4V232.17a4,4,0,0,1,4-4h22.15A4,4,0,0,1,402.79,232.17Z"/><polyline class="cls-7" points="377.53 280.57 398.36 280.57 398.36 280.57 377.53 280.57 377.53 259.28"/><path class="cls-2" d="M402.92,262.85v18.71a3.67,3.67,0,0,1-3.64,3.64H376.4a3.53,3.53,0,0,1-3.5-3.5V259.41h26.52A3.36,3.36,0,0,1,402.92,262.85Z"/><rect class="cls-2" x="383.02" y="267.02" width="13.09" height="5.55"/><rect class="cls-2" x="383.02" y="243.28" width="13.09" height="5.16"/><path class="cls-4" d="M398.89,235.54V252.2a1.86,1.86,0,0,1-1.86,1.86H378.72a1.85,1.85,0,0,1-1.85-1.86V235.54a1.85,1.85,0,0,1,1.85-1.85H397A1.9,1.9,0,0,1,398.89,235.54Z"/><path class="cls-4" d="M398.89,261.13v16.6a1.89,1.89,0,0,1-1.86,1.85H378.78a1.89,1.89,0,0,1-1.85-1.85v-16.6a1.89,1.89,0,0,1,1.85-1.85H397A1.85,1.85,0,0,1,398.89,261.13Z"/><rect class="cls-2" x="383.21" y="243.87" width="12.7" height="5.16"/><rect class="cls-2" x="383.41" y="267.02" width="12.7" height="5.16"/><path class="cls-11" d="M396.11,250.62v14.81a1.61,1.61,0,0,1-1.59,1.59H381.83a1.61,1.61,0,0,1-1.59-1.59V250.62a1.61,1.61,0,0,1,1.59-1.59h12.69A1.57,1.57,0,0,1,396.11,250.62Z"/><path class="cls-7" d="M103.35,249.38c-.4.2-21,0-21,0v20.83h20.43"/><path class="cls-2" d="M81.46,245H99.38a4,4,0,0,1,4,4v22.15a4,4,0,0,1-4,4H81.46a4,4,0,0,1-4-4V248.92A4,4,0,0,1,81.46,245Z"/><polyline class="cls-7" points="129.86 270.21 129.86 249.38 129.86 249.38 129.86 270.21 108.57 270.21"/><path class="cls-2" d="M112.14,244.82h18.72a3.66,3.66,0,0,1,3.63,3.64v22.88a3.52,3.52,0,0,1-3.5,3.5H108.7V248.33A3.36,3.36,0,0,1,112.14,244.82Z"/><rect class="cls-2" x="116.31" y="251.63" width="5.55" height="13.09"/><rect class="cls-2" x="92.57" y="251.63" width="5.16" height="13.09"/><path class="cls-4" d="M84.83,248.85H101.5a1.85,1.85,0,0,1,1.85,1.86V269a1.85,1.85,0,0,1-1.85,1.85H84.83A1.85,1.85,0,0,1,83,269V250.71A1.9,1.9,0,0,1,84.83,248.85Z"/><path class="cls-4" d="M110.42,248.85H127a1.89,1.89,0,0,1,1.85,1.86V269a1.89,1.89,0,0,1-1.85,1.85h-16.6a1.89,1.89,0,0,1-1.85-1.85V250.71A1.85,1.85,0,0,1,110.42,248.85Z"/><rect class="cls-2" x="93.16" y="251.83" width="5.16" height="12.7"/><rect class="cls-2" x="116.31" y="251.63" width="5.16" height="12.7"/><path class="cls-11" d="M99.91,251.63h14.81a1.61,1.61,0,0,1,1.59,1.59v12.69a1.61,1.61,0,0,1-1.59,1.59H99.91a1.61,1.61,0,0,1-1.59-1.59V253.22A1.57,1.57,0,0,1,99.91,251.63Z"/><path class="cls-7" d="M446.29,206.88c-.4.2-21,0-21,0v20.83h20.43"/><path class="cls-2" d="M424.4,202.45h17.92a4,4,0,0,1,4,4v22.15a4,4,0,0,1-4,4H424.4a4,4,0,0,1-4-4V206.42A4,4,0,0,1,424.4,202.45Z"/><polyline class="cls-7" points="472.81 227.71 472.81 206.88 472.81 206.88 472.81 227.71 451.51 227.71"/><path class="cls-2" d="M455.08,202.32H473.8a3.67,3.67,0,0,1,3.63,3.64v22.88a3.52,3.52,0,0,1-3.5,3.5H451.64V205.83A3.36,3.36,0,0,1,455.08,202.32Z"/><rect class="cls-2" x="459.25" y="209.13" width="5.55" height="13.09"/><rect class="cls-2" x="435.51" y="209.13" width="5.16" height="13.09"/><path class="cls-4" d="M427.77,206.36h16.67a1.85,1.85,0,0,1,1.85,1.85v18.31a1.85,1.85,0,0,1-1.85,1.86H427.77a1.85,1.85,0,0,1-1.85-1.86V208.21A1.89,1.89,0,0,1,427.77,206.36Z"/><path class="cls-4" d="M453.36,206.36H470a1.89,1.89,0,0,1,1.85,1.85v18.25a1.89,1.89,0,0,1-1.85,1.85h-16.6a1.89,1.89,0,0,1-1.85-1.85V208.21A1.85,1.85,0,0,1,453.36,206.36Z"/><rect class="cls-2" x="436.11" y="209.33" width="5.16" height="12.7"/><rect class="cls-2" x="459.25" y="209.13" width="5.16" height="12.7"/><path class="cls-11" d="M442.85,209.13h14.81a1.61,1.61,0,0,1,1.59,1.59v12.7a1.61,1.61,0,0,1-1.59,1.58H442.85a1.61,1.61,0,0,1-1.59-1.58v-12.7A1.57,1.57,0,0,1,442.85,209.13Z"/><path class="cls-7" d="M446.29,239.61c-.4.2-21,0-21,0v20.83h20.43"/><path class="cls-2" d="M424.4,235.18h17.92a4,4,0,0,1,4,4V261.3a4,4,0,0,1-4,4H424.4a4,4,0,0,1-4-4V239.14A4,4,0,0,1,424.4,235.18Z"/><polyline class="cls-7" points="472.81 260.44 472.81 239.61 472.81 239.61 472.81 260.44 451.51 260.44"/><path class="cls-2" d="M455.08,235H473.8a3.67,3.67,0,0,1,3.63,3.64v22.88a3.53,3.53,0,0,1-3.5,3.51H451.64V238.55A3.36,3.36,0,0,1,455.08,235Z"/><rect class="cls-2" x="459.25" y="241.86" width="5.55" height="13.09"/><rect class="cls-2" x="435.51" y="241.86" width="5.16" height="13.09"/><path class="cls-4" d="M427.77,239.08h16.67a1.85,1.85,0,0,1,1.85,1.85v18.32a1.85,1.85,0,0,1-1.85,1.85H427.77a1.85,1.85,0,0,1-1.85-1.85V240.93A1.89,1.89,0,0,1,427.77,239.08Z"/><path class="cls-4" d="M453.36,239.08H470a1.89,1.89,0,0,1,1.85,1.85v18.25A1.89,1.89,0,0,1,470,261h-16.6a1.89,1.89,0,0,1-1.85-1.85V240.93A1.85,1.85,0,0,1,453.36,239.08Z"/><rect class="cls-2" x="436.11" y="242.05" width="5.16" height="12.7"/><rect class="cls-2" x="459.25" y="241.86" width="5.16" height="12.7"/><path class="cls-11" d="M442.85,241.86h14.81a1.61,1.61,0,0,1,1.59,1.58v12.7a1.61,1.61,0,0,1-1.59,1.59H442.85a1.61,1.61,0,0,1-1.59-1.59v-12.7A1.57,1.57,0,0,1,442.85,241.86Z"/><path class="cls-7" d="M446.74,273.6c-.45.25-23.09,0-23.09,0v24.76H446"/><path class="cls-2" d="M419.85,268.26h25.41a1.46,1.46,0,0,1,1.48,1.48V302.6a1.46,1.46,0,0,1-1.48,1.48H419.85a1.46,1.46,0,0,1-1.48-1.48V269.74A1.46,1.46,0,0,1,419.85,268.26Z"/><polyline class="cls-7" points="475.87 298.36 475.87 273.6 475.87 273.6 475.87 298.36 452.46 298.36"/><path class="cls-2" d="M453.75,268.06h25.79a1.22,1.22,0,0,1,1.22,1.23v33.25a1.22,1.22,0,0,1-1.22,1.22H452.46V269.29A1.28,1.28,0,0,1,453.75,268.06Z"/><rect class="cls-2" x="460.95" y="276.17" width="6.11" height="15.63"/><rect class="cls-2" x="434.84" y="276.17" width="5.66" height="15.63"/><path class="cls-4" d="M426.22,272.89h18.72a1.8,1.8,0,0,1,1.8,1.8v22.57a1.8,1.8,0,0,1-1.8,1.81H426.22a1.8,1.8,0,0,1-1.8-1.81V274.69A1.76,1.76,0,0,1,426.22,272.89Z"/><path class="cls-4" d="M454.26,272.89H473a1.84,1.84,0,0,1,1.8,1.8v22.57a1.85,1.85,0,0,1-1.8,1.81H454.26a1.85,1.85,0,0,1-1.8-1.81V274.69A1.84,1.84,0,0,1,454.26,272.89Z"/><rect class="cls-2" x="435.55" y="276.43" width="5.66" height="15.11"/><rect class="cls-2" x="460.95" y="276.17" width="5.66" height="15.11"/><path class="cls-10" d="M442.75,276.17h16.59a1.57,1.57,0,0,1,1.55,1.54v12a1.56,1.56,0,0,1-1.55,1.54H442.75a1.55,1.55,0,0,1-1.54-1.54v-12A1.56,1.56,0,0,1,442.75,276.17Z"/><path class="cls-7" d="M260.88,425.75c-.39.2-21,0-21,0v20.83h20.44"/><path class="cls-2" d="M239,421.32h17.92a4,4,0,0,1,4,4v22.15a4,4,0,0,1-4,4H239a4,4,0,0,1-4-4V425.29A4,4,0,0,1,239,421.32Z"/><polyline class="cls-7" points="287.4 446.58 287.4 425.75 287.4 425.75 287.4 446.58 266.11 446.58"/><path class="cls-2" d="M269.68,421.19h18.71a3.67,3.67,0,0,1,3.64,3.64v22.88a3.53,3.53,0,0,1-3.51,3.5H266.24V424.7A3.35,3.35,0,0,1,269.68,421.19Z"/><rect class="cls-2" x="273.84" y="428" width="5.55" height="13.09"/><rect class="cls-2" x="250.1" y="428" width="5.16" height="13.09"/><path class="cls-4" d="M242.37,425.22H259a1.85,1.85,0,0,1,1.85,1.86v18.31a1.85,1.85,0,0,1-1.85,1.85H242.37a1.85,1.85,0,0,1-1.85-1.85V427.08A1.89,1.89,0,0,1,242.37,425.22Z"/><path class="cls-4" d="M268,425.22h16.6a1.89,1.89,0,0,1,1.85,1.86v18.25a1.89,1.89,0,0,1-1.85,1.85H268a1.89,1.89,0,0,1-1.85-1.85V427.08A1.85,1.85,0,0,1,268,425.22Z"/><rect class="cls-2" x="250.7" y="428.2" width="5.16" height="12.7"/><rect class="cls-2" x="273.84" y="428" width="5.16" height="12.7"/><path class="cls-11" d="M257.44,428h14.82a1.61,1.61,0,0,1,1.58,1.59v12.69a1.61,1.61,0,0,1-1.58,1.59H257.44a1.61,1.61,0,0,1-1.58-1.59V429.59A1.56,1.56,0,0,1,257.44,428Z"/><path class="cls-7" d="M260.88,457.3c-.39.2-21,0-21,0v20.83h20.44"/><path class="cls-2" d="M239,452.87h17.92a4,4,0,0,1,4,4V479a4,4,0,0,1-4,4H239a4,4,0,0,1-4-4V456.84A4,4,0,0,1,239,452.87Z"/><polyline class="cls-7" points="287.4 478.13 287.4 457.3 287.4 457.3 287.4 478.13 266.11 478.13"/><path class="cls-2" d="M269.68,452.74h18.71a3.67,3.67,0,0,1,3.64,3.64v22.88a3.53,3.53,0,0,1-3.51,3.5H266.24V456.24A3.35,3.35,0,0,1,269.68,452.74Z"/><rect class="cls-2" x="273.84" y="459.55" width="5.55" height="13.09"/><rect class="cls-2" x="250.1" y="459.55" width="5.16" height="13.09"/><path class="cls-4" d="M242.37,456.77H259a1.85,1.85,0,0,1,1.85,1.86v18.31a1.85,1.85,0,0,1-1.85,1.85H242.37a1.85,1.85,0,0,1-1.85-1.85V458.63A1.89,1.89,0,0,1,242.37,456.77Z"/><path class="cls-4" d="M268,456.77h16.6a1.89,1.89,0,0,1,1.85,1.86v18.25a1.89,1.89,0,0,1-1.85,1.85H268a1.89,1.89,0,0,1-1.85-1.85V458.63A1.85,1.85,0,0,1,268,456.77Z"/><rect class="cls-2" x="250.7" y="459.75" width="5.16" height="12.7"/><rect class="cls-2" x="273.84" y="459.55" width="5.16" height="12.7"/><path class="cls-11" d="M257.44,459.55h14.82a1.61,1.61,0,0,1,1.58,1.59v12.69a1.61,1.61,0,0,1-1.58,1.59H257.44a1.61,1.61,0,0,1-1.58-1.59V461.14A1.56,1.56,0,0,1,257.44,459.55Z"/><path class="cls-7" d="M260.88,488.86c-.39.19-21,0-21,0v20.83h20.44"/><path class="cls-2" d="M239,484.43h17.92a4,4,0,0,1,4,4v22.16a4,4,0,0,1-4,4H239a4,4,0,0,1-4-4V488.39A4,4,0,0,1,239,484.43Z"/><polyline class="cls-7" points="287.4 509.69 287.4 488.86 287.4 488.86 287.4 509.69 266.11 509.69"/><path class="cls-2" d="M269.68,484.29h18.71a3.68,3.68,0,0,1,3.64,3.64v22.88a3.53,3.53,0,0,1-3.51,3.5H266.24V487.8A3.35,3.35,0,0,1,269.68,484.29Z"/><rect class="cls-2" x="273.84" y="491.1" width="5.55" height="13.09"/><rect class="cls-2" x="250.1" y="491.1" width="5.16" height="13.09"/><path class="cls-4" d="M242.37,488.33H259a1.85,1.85,0,0,1,1.85,1.85V508.5a1.85,1.85,0,0,1-1.85,1.85H242.37a1.85,1.85,0,0,1-1.85-1.85V490.18A1.88,1.88,0,0,1,242.37,488.33Z"/><path class="cls-4" d="M268,488.33h16.6a1.89,1.89,0,0,1,1.85,1.85v18.25a1.89,1.89,0,0,1-1.85,1.85H268a1.89,1.89,0,0,1-1.85-1.85V490.18A1.85,1.85,0,0,1,268,488.33Z"/><rect class="cls-2" x="250.7" y="491.3" width="5.16" height="12.7"/><rect class="cls-2" x="273.84" y="491.1" width="5.16" height="12.7"/><path class="cls-11" d="M257.44,491.1h14.82a1.61,1.61,0,0,1,1.58,1.59v12.7a1.6,1.6,0,0,1-1.58,1.58H257.44a1.6,1.6,0,0,1-1.58-1.58v-12.7A1.57,1.57,0,0,1,257.44,491.1Z"/><path class="cls-7" d="M260.88,520.1c-.39.2-21,0-21,0v20.83h20.44"/><path class="cls-2" d="M239,515.67h17.92a4,4,0,0,1,4,4v22.15a4,4,0,0,1-4,4H239a4,4,0,0,1-4-4V519.64A4,4,0,0,1,239,515.67Z"/><polyline class="cls-7" points="287.4 540.93 287.4 520.1 287.4 520.1 287.4 540.93 266.11 540.93"/><path class="cls-2" d="M269.68,515.54h18.71a3.67,3.67,0,0,1,3.64,3.63v22.88a3.53,3.53,0,0,1-3.51,3.51H266.24V519A3.34,3.34,0,0,1,269.68,515.54Z"/><rect class="cls-2" x="273.84" y="522.35" width="5.55" height="13.09"/><rect class="cls-2" x="250.1" y="522.35" width="5.16" height="13.09"/><path class="cls-4" d="M242.37,519.57H259a1.85,1.85,0,0,1,1.85,1.85v18.32a1.85,1.85,0,0,1-1.85,1.85H242.37a1.85,1.85,0,0,1-1.85-1.85V521.42A1.88,1.88,0,0,1,242.37,519.57Z"/><path class="cls-4" d="M268,519.57h16.6a1.89,1.89,0,0,1,1.85,1.85v18.25a1.89,1.89,0,0,1-1.85,1.85H268a1.89,1.89,0,0,1-1.85-1.85V521.42A1.85,1.85,0,0,1,268,519.57Z"/><rect class="cls-2" x="250.7" y="522.55" width="5.16" height="12.7"/><rect class="cls-2" x="273.84" y="522.35" width="5.16" height="12.7"/><path class="cls-11" d="M257.44,522.35h14.82a1.6,1.6,0,0,1,1.58,1.58v12.7a1.61,1.61,0,0,1-1.58,1.59H257.44a1.61,1.61,0,0,1-1.58-1.59v-12.7A1.56,1.56,0,0,1,257.44,522.35Z"/><rect class="cls-2" x="91.18" y="635.92" width="15.69" height="4.55"/><path class="cls-2" d="M133.25,640.47h12.13a1.91,1.91,0,0,0,1.88-1.92V622.34a1.91,1.91,0,0,0-1.88-1.92H133.25a1.91,1.91,0,0,0-1.88,1.92v16.21A1.91,1.91,0,0,0,133.25,640.47Z"/><path class="cls-4" d="M129.82,614H143a2.07,2.07,0,0,0,2.08-2.11V590.63a2.07,2.07,0,0,0-2.08-2.11H129.82a2.07,2.07,0,0,0-2.08,2.11v21.22A2.07,2.07,0,0,0,129.82,614Z"/><path class="cls-4" d="M94.62,614.43H109.2a1.45,1.45,0,0,0,1.43-1.45V590.36a1.45,1.45,0,0,0-1.43-1.45H94.62a1.45,1.45,0,0,0-1.43,1.45V613A1.46,1.46,0,0,0,94.62,614.43Z"/><rect class="cls-2" x="111.15" y="636.84" width="8.1" height="7.25"/><rect class="cls-2" x="114.2" y="644.09" width="7.26" height="3.36"/><rect class="cls-2" x="128.39" y="606.71" width="8.1" height="7.25"/><rect class="cls-2" x="131.44" y="603.35" width="7.26" height="3.36"/><rect class="cls-2" x="94.49" y="606.71" width="8.1" height="7.25"/><rect class="cls-2" x="97.54" y="603.35" width="7.26" height="3.36"/><rect class="cls-2" x="112.45" y="606.78" width="13.74" height="4.81"/><path class="cls-12" d="M89,636.84h51.47a2,2,0,0,0,2-2V616a2,2,0,0,0-2-2H89a2,2,0,0,0-1.94,2v18.85A1.92,1.92,0,0,0,89,636.84Z"/><path class="cls-4" d="M112.51,662.29h13.1a2.18,2.18,0,0,0,2.13-2.18V639a2.18,2.18,0,0,0-2.13-2.18h-13.1a2.18,2.18,0,0,0-2.14,2.18v21.09A2.18,2.18,0,0,0,112.51,662.29Z"/><ellipse class="cls-13" cx="94.49" cy="621.88" rx="2.53" ry="2.57"/><rect class="cls-2" x="112.38" y="636.84" width="8.1" height="7.25"/><rect class="cls-2" x="115.43" y="644.09" width="7.26" height="3.36"/><rect class="cls-2" x="158.58" y="636.51" width="15.69" height="4.55"/><path class="cls-2" d="M200.65,641.05h12.12a1.89,1.89,0,0,0,1.88-1.91V622.92a1.9,1.9,0,0,0-1.88-1.91H200.65a1.9,1.9,0,0,0-1.88,1.91v16.22A1.9,1.9,0,0,0,200.65,641.05Z"/><path class="cls-4" d="M197.22,614.55h13.22a2.07,2.07,0,0,0,2.08-2.11V591.22a2.07,2.07,0,0,0-2.08-2.11H197.22a2.07,2.07,0,0,0-2.08,2.11v21.22A2.07,2.07,0,0,0,197.22,614.55Z"/><path class="cls-4" d="M162,615H176.6a1.45,1.45,0,0,0,1.43-1.45V591a1.45,1.45,0,0,0-1.43-1.45H162a1.45,1.45,0,0,0-1.43,1.45v22.61A1.45,1.45,0,0,0,162,615Z"/><rect class="cls-2" x="178.55" y="637.43" width="8.1" height="7.25"/><rect class="cls-2" x="181.59" y="644.68" width="7.26" height="3.36"/><rect class="cls-2" x="195.79" y="607.3" width="8.1" height="7.25"/><rect class="cls-2" x="198.84" y="603.94" width="7.26" height="3.36"/><rect class="cls-2" x="161.89" y="607.3" width="8.1" height="7.25"/><rect class="cls-2" x="164.93" y="603.94" width="7.26" height="3.36"/><rect class="cls-2" x="179.84" y="607.37" width="13.74" height="4.81"/><path class="cls-12" d="M156.44,637.43h51.47a2,2,0,0,0,2-2V616.6a2,2,0,0,0-2-2H156.44a2,2,0,0,0-1.94,2v18.85A1.92,1.92,0,0,0,156.44,637.43Z"/><path class="cls-4" d="M179.91,662.87H193a2.17,2.17,0,0,0,2.14-2.17V639.6a2.17,2.17,0,0,0-2.14-2.17H179.91a2.17,2.17,0,0,0-2.14,2.17v21.1A2.17,2.17,0,0,0,179.91,662.87Z"/><ellipse class="cls-13" cx="161.89" cy="622.46" rx="2.53" ry="2.57"/><rect class="cls-2" x="179.78" y="637.43" width="8.1" height="7.25"/><rect class="cls-2" x="182.83" y="644.68" width="7.26" height="3.36"/><polygon class="cls-14" points="94.35 77.64 133.27 77.64 134.5 80.87 134.5 83.13 125.59 82.87 125.78 80.48 112.03 80.48 111.65 82.74 103.19 82.74 102.87 79.71 94.15 79.71 94.35 77.64"/><path class="cls-15" d="M118.75,96.36a18,18,0,1,1-18,18A18,18,0,0,1,118.75,96.36Z"/><path class="cls-16" d="M118.75,96.36a18,18,0,1,0,18.07,18A18,18,0,0,0,118.75,96.36ZM144,138.64v11.82l-8.46-.13-.52-1.55-8.71-.07-.65,3.36H112.23l-.71-3.16h-8.65l-.33,1.93H92.28l-.13-12.46h2v-2.51H91.76V96.55l3.68-1.22-3.68-.78v-13l1.68-.19.07-1.68h9.29l.39,3h8.46l.32-2.32h13.75l-.13,2.45,8.84.19V80.8h9.49V94.49l-2.84.84,2.84.9V135.8l-2.45.07-.07,2.71H144Z"/><rect class="cls-17" x="127.98" y="150.46" width="6.13" height="1.16"/><rect class="cls-17" x="103.58" y="150.46" width="6.07" height="1.16"/><rect class="cls-17" x="108.35" y="158.07" width="16.07" height="2.39"/><path class="cls-18" d="M109.64,150.46h-6.06v1.16h6.06Zm24.47,0H128v1.16h6.13Zm-40.93,9.16-3.35.39.51-6.33H87.63v-7L88,101.2l1.43-2.64,2.45-4.07,3.68.77-3.68,1.23V135.8h2.39v2.52h-2l.12,12.46h10.27l.32-1.94h8.65l.71,3.17h13.43l.64-3.36,8.72.06.51,1.55,8.46.13-.58,9.49h-3.81V163l-5.1-.32-.71,3.55H93.18Zm31.25.84v-2.39H108.35v2.39Z"/><polygon class="cls-19" points="134.5 162.72 139.6 163.04 139.6 159.94 143.41 159.94 143.99 150.46 143.99 171.37 135.92 171.37 135.92 166.27 133.79 166.27 134.5 162.72"/><rect class="cls-4" x="101.51" y="166.27" width="26.47" height="8.84"/><polygon class="cls-19" points="89.83 160.07 93.18 159.62 93.18 166.27 93.18 170.92 84.98 170.92 84.98 93.84 89.12 93.84 89.7 85.19 91.83 81.58 91.83 94.55 89.38 98.62 88.02 101.27 87.63 146.65 87.63 153.75 90.28 153.75 89.83 160.07"/><polygon class="cls-4" points="127.98 166.27 133.79 166.27 133.79 186.54 94.73 186.54 94.73 166.27 101.51 166.27 101.51 175.12 127.98 175.12 127.98 166.27"/><polygon class="cls-14" points="93.18 166.27 94.73 166.27 94.73 186.54 133.79 186.54 133.79 166.27 135.34 171.37 135.92 171.37 135.92 188.48 93.18 188.48 93.18 170.92 93.57 170.92 93.18 166.27"/><polygon class="cls-14" points="427.84 74.54 468.67 74.54 469.89 77.84 469.89 80.21 460.57 80 460.78 77.44 446.4 77.44 445.93 79.87 437.22 79.87 436.75 76.63 427.64 76.63 427.84 74.54"/><path class="cls-15" d="M453.49,94a18.87,18.87,0,1,1-18.9,18.83A18.89,18.89,0,0,1,453.49,94Z"/><path class="cls-16" d="M453.49,94a18.87,18.87,0,1,0,18.83,18.83A18.85,18.85,0,0,0,453.49,94ZM427.64,76.63h9.11l.4,3.24h8.78l.4-2.43h14.38l-.2,2.56,9.31.21V77.84h9.85V92.15l-3,.88,3,.94v41.38l-2.49.07-.07,2.83h2.56V150.6l-8.84-.13-.4-1.62-9.11-.07-.68,3.51h-14l-.81-3.31h-9l-.41,2H425.68l-.07-13h2.09v-2.63h-2.49V94.24L429,93l-3.78-.81V78.59l1.68-.21.14-1.75Z"/><rect class="cls-17" x="463" y="150.67" width="6.41" height="1.21"/><rect class="cls-17" x="437.56" y="150.67" width="6.34" height="1.21"/><rect class="cls-17" x="442.55" y="158.63" width="16.81" height="2.5"/><polygon class="cls-19" points="479.13 160.52 479.74 150.6 479.74 172.47 471.44 172.47 471.44 167.21 469.08 167.21 469.89 163.43 475.15 163.83 475.15 160.52 479.13 160.52"/><path class="cls-18" d="M443.9,150.6h-6.34v1.22h6.34Zm25.58,0h-6.41v1.22h6.41Zm-10.19,8H442.48v2.5h16.81Zm20.45-8-.61,9.92h-4v3.31l-5.26-.34-.81,3.71H426.62v-6.95l-3.44.41.41-6.62h-2.77v-7.35l.34-47.52,1.48-2.77,2.63-4.25,3.78.81-3.78,1.28v41.11h2.5V138h-2.09l.07,13h10.73l.4-2h9l.81,3.31h14l.67-3.51,9.11.07.41,1.62Z"/><rect class="cls-4" x="435.47" y="167.2" width="27.6" height="9.25"/><polygon class="cls-19" points="420.89 154.04 423.65 154.04 423.18 160.66 426.62 160.25 426.62 167.21 426.62 172 418.12 172 418.12 91.41 422.37 91.41 422.98 82.37 425.34 78.59 425.34 92.15 422.71 96.41 421.23 99.17 420.89 146.69 420.89 154.04"/><polygon class="cls-4" points="463 167.21 469.08 167.21 469.08 188.33 428.24 188.33 428.24 167.21 435.47 167.21 435.47 176.45 463 176.45 463 167.21"/><polygon class="cls-14" points="426.62 167.21 428.24 167.21 428.24 188.33 469.08 188.33 469.08 167.21 470.76 172.47 471.44 172.47 471.44 190.35 426.62 190.35 426.62 172 427.16 172 426.62 167.21"/><path class="cls-4" d="M356.12,80.63v21.72a4.61,4.61,0,0,0,4.6,4.6H389.8a4.61,4.61,0,0,0,4.59-4.6V80.63A4.6,4.6,0,0,0,389.8,76H360.72A4.61,4.61,0,0,0,356.12,80.63Z"/><path class="cls-2" d="M356.12,79.38V92.24a3.3,3.3,0,0,0,3.29,3.29h18.64a3.29,3.29,0,0,0,3.28-3.29V79.38a3.29,3.29,0,0,0-3.28-3.28H359.41A3.21,3.21,0,0,0,356.12,79.38Z"/><path class="cls-4" d="M204,80.63v21.72a4.6,4.6,0,0,1-4.59,4.6H170.3a4.61,4.61,0,0,1-4.6-4.6V80.63a4.61,4.61,0,0,1,4.6-4.6h29.08A4.6,4.6,0,0,1,204,80.63Z"/><path class="cls-2" d="M204,79.38V92.24a3.3,3.3,0,0,1-3.28,3.29H182.05a3.3,3.3,0,0,1-3.29-3.29V79.38a3.29,3.29,0,0,1,3.29-3.28h18.64A3.24,3.24,0,0,1,204,79.38Z"/><path class="cls-2" d="M195,165V12.1A10.84,10.84,0,0,1,205.81,1.27H355.93A10.84,10.84,0,0,1,366.76,12.1V165a10.84,10.84,0,0,1-10.83,10.83H205.74A10.83,10.83,0,0,1,195,165Z"/><path class="cls-4" d="M207.58,157.23V179a4.6,4.6,0,0,1-4.59,4.6H173.91a4.61,4.61,0,0,1-4.6-4.6V157.23a4.61,4.61,0,0,1,4.6-4.6H203A4.57,4.57,0,0,1,207.58,157.23Z"/><path class="cls-2" d="M207.58,155.91v12.87a3.29,3.29,0,0,1-3.28,3.28H185.66a3.3,3.3,0,0,1-3.29-3.28V155.91a3.3,3.3,0,0,1,3.29-3.28H204.3A3.33,3.33,0,0,1,207.58,155.91Z"/><path class="cls-4" d="M354.94,159.59V180.2a5.13,5.13,0,0,0,5.12,5.12h28a5.13,5.13,0,0,0,5.12-5.12V159.59a5.13,5.13,0,0,0-5.12-5.12h-28A5.13,5.13,0,0,0,354.94,159.59Z"/><path class="cls-20" d="M320.42,169.11V199a1.64,1.64,0,0,1-1.64,1.65h-5.85a1.63,1.63,0,0,1-1.64-1.65V169.11a1.62,1.62,0,0,1,1.64-1.64h5.85A1.71,1.71,0,0,1,320.42,169.11Z"/><path class="cls-21" d="M313.52,198.52V179.74a.87.87,0,0,1,.86-.85h2.95a.86.86,0,0,1,.85.85v18.78a.87.87,0,0,1-.85.85h-2.95A.8.8,0,0,1,313.52,198.52Z"/><path class="cls-22" d="M313.52,177.58v-1.45a1.32,1.32,0,0,1,1.32-1.31h2.43a1.31,1.31,0,0,1,1.31,1.31v1.45a1.31,1.31,0,0,1-1.31,1.31h-2.43A1.42,1.42,0,0,1,313.52,177.58Z"/><path class="cls-20" d="M312,169.24v29.87a1.63,1.63,0,0,1-1.64,1.64h-5.84a1.64,1.64,0,0,1-1.65-1.64V169.24a1.63,1.63,0,0,1,1.65-1.64h5.84A1.71,1.71,0,0,1,312,169.24Z"/><path class="cls-21" d="M305.06,198.65V179.87a.86.86,0,0,1,.85-.85h2.95a.87.87,0,0,1,.86.85v18.78a.87.87,0,0,1-.86.85h-2.95A.79.79,0,0,1,305.06,198.65Z"/><path class="cls-22" d="M305.06,177.71v-1.45a1.31,1.31,0,0,1,1.31-1.31h2.43a1.31,1.31,0,0,1,1.31,1.31v1.45A1.31,1.31,0,0,1,308.8,179h-2.43A1.36,1.36,0,0,1,305.06,177.71Z"/><path class="cls-20" d="M303.48,169.37v29.87a1.62,1.62,0,0,1-1.64,1.64H296a1.62,1.62,0,0,1-1.64-1.64V169.37a1.62,1.62,0,0,1,1.64-1.64h5.84A1.77,1.77,0,0,1,303.48,169.37Z"/><path class="cls-21" d="M296.52,198.78V180a.87.87,0,0,1,.86-.85h2.95a.86.86,0,0,1,.85.85v18.78a.86.86,0,0,1-.85.85h-2.95A.79.79,0,0,1,296.52,198.78Z"/><path class="cls-22" d="M296.52,177.84v-1.45a1.32,1.32,0,0,1,1.32-1.31h2.42a1.32,1.32,0,0,1,1.32,1.31v1.45a1.32,1.32,0,0,1-1.32,1.31h-2.42A1.32,1.32,0,0,1,296.52,177.84Z"/><path class="cls-20" d="M295,169.57v29.86a1.63,1.63,0,0,1-1.64,1.65h-5.85a1.64,1.64,0,0,1-1.64-1.65V169.57a1.63,1.63,0,0,1,1.64-1.64h5.85A1.62,1.62,0,0,1,295,169.57Z"/><path class="cls-21" d="M288.06,198.91V180.14a.87.87,0,0,1,.85-.86h2.95a.88.88,0,0,1,.86.86v18.77a.87.87,0,0,1-.86.85h-2.95A.79.79,0,0,1,288.06,198.91Z"/><path class="cls-22" d="M288.06,178v-1.44a1.32,1.32,0,0,1,1.31-1.32h2.43a1.32,1.32,0,0,1,1.31,1.32V178a1.31,1.31,0,0,1-1.31,1.31h-2.43A1.31,1.31,0,0,1,288.06,178Z"/><path class="cls-20" d="M286.48,169.7v29.87a1.63,1.63,0,0,1-1.64,1.64H279a1.63,1.63,0,0,1-1.64-1.64V169.7a1.62,1.62,0,0,1,1.64-1.64h5.84A1.62,1.62,0,0,1,286.48,169.7Z"/><path class="cls-21" d="M279.59,199V180.27a.87.87,0,0,1,.85-.86h3a.88.88,0,0,1,.85.86V199a.87.87,0,0,1-.85.85h-3A.78.78,0,0,1,279.59,199Z"/><path class="cls-22" d="M279.59,178.1v-1.44a1.32,1.32,0,0,1,1.31-1.32h2.43a1.32,1.32,0,0,1,1.31,1.32v1.44a1.31,1.31,0,0,1-1.31,1.31H280.9A1.27,1.27,0,0,1,279.59,178.1Z"/><path class="cls-20" d="M278,169.83V199.7a1.63,1.63,0,0,1-1.64,1.64h-5.85a1.63,1.63,0,0,1-1.64-1.64V169.83a1.63,1.63,0,0,1,1.64-1.64h5.85A1.63,1.63,0,0,1,278,169.83Z"/><path class="cls-21" d="M271.05,199.24V180.46a.87.87,0,0,1,.86-.85h2.95a.87.87,0,0,1,.86.85v18.78a.87.87,0,0,1-.86.85h-2.95A.87.87,0,0,1,271.05,199.24Z"/><path class="cls-22" d="M271.05,178.23v-1.44a1.32,1.32,0,0,1,1.32-1.31h2.43a1.31,1.31,0,0,1,1.31,1.31v1.44a1.32,1.32,0,0,1-1.31,1.32h-2.43A1.33,1.33,0,0,1,271.05,178.23Z"/><path class="cls-20" d="M269.48,170v29.87a1.62,1.62,0,0,1-1.64,1.64H262a1.62,1.62,0,0,1-1.64-1.64V170a1.62,1.62,0,0,1,1.64-1.64h5.84A1.62,1.62,0,0,1,269.48,170Z"/><path class="cls-21" d="M262.59,199.37V180.6a.87.87,0,0,1,.85-.86h2.95a.88.88,0,0,1,.86.86v18.77a.87.87,0,0,1-.86.85h-2.95A.86.86,0,0,1,262.59,199.37Z"/><path class="cls-22" d="M262.59,178.36v-1.44a1.31,1.31,0,0,1,1.31-1.31h2.43a1.31,1.31,0,0,1,1.31,1.31v1.44a1.32,1.32,0,0,1-1.31,1.32H263.9A1.32,1.32,0,0,1,262.59,178.36Z"/><path class="cls-20" d="M261,170.09V200a1.62,1.62,0,0,1-1.64,1.64h-5.84a1.62,1.62,0,0,1-1.64-1.64V170.09a1.62,1.62,0,0,1,1.64-1.64h5.84A1.67,1.67,0,0,1,261,170.09Z"/><path class="cls-21" d="M254.05,199.5V180.73a.88.88,0,0,1,.86-.86h3a.87.87,0,0,1,.85.86V199.5a.86.86,0,0,1-.85.85h-3A.87.87,0,0,1,254.05,199.5Z"/><path class="cls-22" d="M254.05,178.49v-1.44a1.32,1.32,0,0,1,1.32-1.31h2.43a1.31,1.31,0,0,1,1.31,1.31v1.44a1.32,1.32,0,0,1-1.31,1.32h-2.43A1.32,1.32,0,0,1,254.05,178.49Z"/><path class="cls-20" d="M252.48,170.22v29.87a1.62,1.62,0,0,1-1.64,1.64H245a1.63,1.63,0,0,1-1.65-1.64V170.22a1.64,1.64,0,0,1,1.65-1.64h5.84A1.63,1.63,0,0,1,252.48,170.22Z"/><path class="cls-20" d="M349.17,163.33V199.5a2.8,2.8,0,0,1-2.83,2.82H335.71a2.8,2.8,0,0,1-2.82-2.82V163.33a2.8,2.8,0,0,1,2.82-2.82h10.63A2.85,2.85,0,0,1,349.17,163.33Z"/><path class="cls-21" d="M346,171.8v26.39a1.18,1.18,0,0,1-1.18,1.18h-7.55a1.18,1.18,0,0,1-1.18-1.18V171.8a1.17,1.17,0,0,1,1.18-1.18h7.55A1.17,1.17,0,0,1,346,171.8Z"/><path class="cls-22" d="M344.11,179v1.91a1.31,1.31,0,0,1-1.31,1.31h-3.61a1.31,1.31,0,0,1-1.31-1.31V179a1.31,1.31,0,0,1,1.31-1.31h3.61A1.31,1.31,0,0,1,344.11,179Z"/><path class="cls-20" d="M334.79,163.33V199.5a2.8,2.8,0,0,1-2.82,2.82H321.34a2.81,2.81,0,0,1-2.83-2.82V163.33a2.81,2.81,0,0,1,2.83-2.82H332A2.8,2.8,0,0,1,334.79,163.33Z"/><path class="cls-21" d="M331.64,171.8v26.39a1.18,1.18,0,0,1-1.18,1.18h-7.55a1.18,1.18,0,0,1-1.18-1.18V171.8a1.17,1.17,0,0,1,1.18-1.18h7.55A1.22,1.22,0,0,1,331.64,171.8Z"/><path class="cls-22" d="M329.74,179v1.91a1.32,1.32,0,0,1-1.32,1.31h-3.61a1.31,1.31,0,0,1-1.31-1.31V179a1.31,1.31,0,0,1,1.31-1.31h3.61A1.32,1.32,0,0,1,329.74,179Z"/><path class="cls-20" d="M243.42,162.61v36.17a2.8,2.8,0,0,1-2.82,2.82H230a2.8,2.8,0,0,1-2.82-2.82V162.61a2.8,2.8,0,0,1,2.82-2.82H240.6A2.8,2.8,0,0,1,243.42,162.61Z"/><path class="cls-21" d="M240.27,171.08v26.38a1.18,1.18,0,0,1-1.18,1.19h-7.55a1.18,1.18,0,0,1-1.18-1.19V171.08a1.17,1.17,0,0,1,1.18-1.18h7.55A1.22,1.22,0,0,1,240.27,171.08Z"/><path class="cls-22" d="M238.37,178.23v1.91a1.32,1.32,0,0,1-1.32,1.31h-3.61a1.31,1.31,0,0,1-1.31-1.31v-1.91a1.31,1.31,0,0,1,1.31-1.31h3.61A1.32,1.32,0,0,1,238.37,178.23Z"/><path class="cls-20" d="M229.05,162.61v36.17a2.81,2.81,0,0,1-2.83,2.82H215.59a2.8,2.8,0,0,1-2.82-2.82V162.61a2.79,2.79,0,0,1,2.82-2.82h10.63A2.8,2.8,0,0,1,229.05,162.61Z"/><path class="cls-21" d="M225.89,171.08v26.38a1.18,1.18,0,0,1-1.18,1.19h-7.55a1.18,1.18,0,0,1-1.18-1.19V171.08a1.18,1.18,0,0,1,1.18-1.18h7.55A1.17,1.17,0,0,1,225.89,171.08Z"/><path class="cls-22" d="M224,178.23v1.91a1.31,1.31,0,0,1-1.31,1.31h-3.61a1.32,1.32,0,0,1-1.32-1.31v-1.91a1.32,1.32,0,0,1,1.32-1.31h3.61A1.27,1.27,0,0,1,224,178.23Z"/><path class="cls-21" d="M245.59,199.63V180.86a.87.87,0,0,1,.85-.86h2.95a.88.88,0,0,1,.86.86v18.77a.87.87,0,0,1-.86.85h-2.95A.86.86,0,0,1,245.59,199.63Z"/><path class="cls-22" d="M245.59,178.63v-1.45a1.31,1.31,0,0,1,1.31-1.31h2.43a1.31,1.31,0,0,1,1.31,1.31v1.45a1.31,1.31,0,0,1-1.31,1.31H246.9A1.31,1.31,0,0,1,245.59,178.63Z"/><path class="cls-2" d="M354.94,158.8v10.77a4.37,4.37,0,0,0,4.34,4.33h16.54a4.37,4.37,0,0,0,4.33-4.33V158.8a4.37,4.37,0,0,0-4.33-4.33H359.28A4.37,4.37,0,0,0,354.94,158.8Z"/><polyline class="cls-23" points="204.1 175.74 357.57 174.88 363.02 156.9 361.77 146.99 345.95 144.89 320.42 144.89 318.25 152.96 301.31 146.72 264.95 146 248.08 152.04 238.37 144.89 210.14 143.51 199.05 148.1 196.49 162.22 204.1 175.74"/><polygon class="cls-24" points="306.04 129.59 321.66 129.59 321.66 133.93 313.52 133.93 306.04 129.59"/><polygon class="cls-25" points="238.37 133.93 238.37 129.59 254.78 130.31 247.16 133.93 238.37 133.93"/><path class="cls-26" d="M238.37,129.59v4.34h8.79l7.62-3.62Zm83.29,4.34v-4.34H306l7.48,4.34Zm-8.14,3.34-13.85-5.58.27-6.3H325.6v18s24-.85,30.92,1.25,10.17,5.58,10.17,9.06-3.15,21.07-3.15,21.07h-6s1.71-11,2.76-20.81-36.76-7.09-36.76-7.09v7.62l-10.05-.27-19.1-7L265,148l-17,7.15-10.7-.26-.14-7.15c-38.2-3.48-36.89,5.31-36.89,5.31l3.88,22.58-6.63.13s-2.23-13.26-3.22-24.48,41.09-7.81,41.09-7.81V126.18h25.14v5.58l-12.27,4.59-.13,12.21,12.4-5.45h41L313.72,148v-10.7Z"/><rect class="cls-2" x="283.86" y="241.78" width="4.03" height="40.02"/><rect class="cls-2" x="253.69" y="242.29" width="4.67" height="40.53"/><path class="cls-4" d="M260.53,243.57V230.91a2.16,2.16,0,0,1,2.17-2.18h16.94a2.16,2.16,0,0,1,2.18,2.18v12.66a2.16,2.16,0,0,1-2.18,2.17H262.7A2.24,2.24,0,0,1,260.53,243.57Z"/><path class="cls-4" d="M281.18,274.51v19.12a1.85,1.85,0,0,1-1.86,1.85h-17a1.86,1.86,0,0,1-1.86-1.85V274.51a1.86,1.86,0,0,1,1.86-1.85h17A1.89,1.89,0,0,1,281.18,274.51Z"/><path class="cls-27" d="M282.91,240.63v32.79a1.59,1.59,0,0,1-1.6,1.6h-20.4a1.59,1.59,0,0,1-1.6-1.6V240.63a1.59,1.59,0,0,1,1.6-1.6h20.4A1.59,1.59,0,0,1,282.91,240.63Z"/><rect class="cls-28" x="267.37" y="270.48" width="6.07" height="13.3"/><rect class="cls-29" x="265.77" y="277.13" width="9.01" height="2.88"/><rect class="cls-2" x="323.7" y="241.47" width="4.03" height="40.02"/><rect class="cls-2" x="293.53" y="241.99" width="4.67" height="40.53"/><path class="cls-4" d="M300.37,243.26V230.61a2.16,2.16,0,0,1,2.17-2.18h16.94a2.16,2.16,0,0,1,2.18,2.18v12.65a2.16,2.16,0,0,1-2.18,2.18H302.54A2.24,2.24,0,0,1,300.37,243.26Z"/><path class="cls-4" d="M321,274.21v19.11a1.85,1.85,0,0,1-1.85,1.86h-17a1.86,1.86,0,0,1-1.86-1.86V274.21a1.86,1.86,0,0,1,1.86-1.86h17A1.91,1.91,0,0,1,321,274.21Z"/><path class="cls-27" d="M322.75,240.32v32.8a1.59,1.59,0,0,1-1.6,1.6h-20.4a1.59,1.59,0,0,1-1.6-1.6v-32.8a1.59,1.59,0,0,1,1.6-1.6h20.4A1.59,1.59,0,0,1,322.75,240.32Z"/><rect class="cls-28" x="307.21" y="270.18" width="6.07" height="13.3"/><rect class="cls-29" x="305.61" y="276.83" width="9.01" height="2.88"/><rect class="cls-2" x="205.6" y="241.04" width="4.03" height="40.02"/><rect class="cls-2" x="175.43" y="241.56" width="4.67" height="40.53"/><path class="cls-4" d="M182.27,242.83V230.18a2.16,2.16,0,0,1,2.17-2.18h16.94a2.16,2.16,0,0,1,2.18,2.18v12.65a2.16,2.16,0,0,1-2.18,2.18H184.44A2.24,2.24,0,0,1,182.27,242.83Z"/><path class="cls-4" d="M202.92,273.78v19.11a1.86,1.86,0,0,1-1.86,1.86h-17a1.86,1.86,0,0,1-1.86-1.86V273.78a1.86,1.86,0,0,1,1.86-1.86h17A1.91,1.91,0,0,1,202.92,273.78Z"/><path class="cls-27" d="M204.64,239.89v32.8a1.58,1.58,0,0,1-1.59,1.6h-20.4a1.59,1.59,0,0,1-1.6-1.6v-32.8a1.58,1.58,0,0,1,1.6-1.59h20.4A1.58,1.58,0,0,1,204.64,239.89Z"/><rect class="cls-28" x="189.11" y="269.75" width="6.07" height="13.3"/><rect class="cls-29" x="187.51" y="276.4" width="9.01" height="2.88"/><rect class="cls-2" x="169.52" y="241.36" width="4.03" height="40.02"/><rect class="cls-2" x="139.35" y="241.88" width="4.67" height="40.53"/><path class="cls-4" d="M146.19,243.15V230.5a2.16,2.16,0,0,1,2.17-2.18H165.3a2.16,2.16,0,0,1,2.18,2.18v12.65a2.16,2.16,0,0,1-2.18,2.18H148.36A2.24,2.24,0,0,1,146.19,243.15Z"/><path class="cls-4" d="M166.84,274.1v19.11a1.86,1.86,0,0,1-1.86,1.86H148a1.86,1.86,0,0,1-1.86-1.86V274.1a1.86,1.86,0,0,1,1.86-1.86h17A1.91,1.91,0,0,1,166.84,274.1Z"/><path class="cls-27" d="M168.56,240.21V273a1.58,1.58,0,0,1-1.6,1.6H146.57A1.59,1.59,0,0,1,145,273v-32.8a1.59,1.59,0,0,1,1.6-1.6H167A1.59,1.59,0,0,1,168.56,240.21Z"/><rect class="cls-28" x="153.03" y="270.07" width="6.07" height="13.3"/><rect class="cls-29" x="151.43" y="276.72" width="9.01" height="2.88"/><path class="cls-30" d="M244.81,341.48l3.74-4.52a1.05,1.05,0,0,1,1.49-.13h0a1.05,1.05,0,0,1,.13,1.49l-3.75,4.52a1,1,0,0,1-1.48.13h0A1,1,0,0,1,244.81,341.48Z"/><path class="cls-30" d="M266.83,337.28h0a1.23,1.23,0,0,1,1.74-.25l4.32,3.23a1.23,1.23,0,0,1,.26,1.74h0a1.25,1.25,0,0,1-1.74.26L267.08,339A1.19,1.19,0,0,1,266.83,337.28Z"/><path class="cls-30" d="M268.89,337.8h0a1.27,1.27,0,0,1-1.23,1.23H249.58a1.27,1.27,0,0,1-1.22-1.23h0a1.28,1.28,0,0,1,1.22-1.23h18.08A1.28,1.28,0,0,1,268.89,337.8Z"/><path class="cls-30" d="M273.28,342.32h0a1.36,1.36,0,0,1-1.35,1.36H245.84a1.37,1.37,0,0,1-1.36-1.36h0a1.37,1.37,0,0,1,1.36-1.35h26.09A1.4,1.4,0,0,1,273.28,342.32Z"/><path class="cls-30" d="M246.29,342.19v22.09a.88.88,0,0,1-.9.9h0a.89.89,0,0,1-.91-.9V342.19a.89.89,0,0,1,.91-.9h0A1,1,0,0,1,246.29,342.19Z"/><path class="cls-30" d="M273.28,341.48v23.57a1,1,0,0,1-1,1h0a1,1,0,0,1-1-1V341.48a1,1,0,0,1,1-1h0A1,1,0,0,1,273.28,341.48Z"/><path class="cls-30" d="M270.44,399V375.64a1.43,1.43,0,0,1,1.42-1.42h0a1.43,1.43,0,0,1,1.42,1.42V399a1.43,1.43,0,0,1-1.42,1.42h0A1.39,1.39,0,0,1,270.44,399Z"/><path class="cls-30" d="M243.9,399h0a1.43,1.43,0,0,1,1.42-1.42h26.15a1.43,1.43,0,0,1,1.42,1.42h0a1.43,1.43,0,0,1-1.42,1.42H245.32A1.39,1.39,0,0,1,243.9,399Z"/><path class="cls-30" d="M246.29,374.86v24.35a1.15,1.15,0,0,1-1.16,1.16h0a1.15,1.15,0,0,1-1.16-1.16V374.86a1.15,1.15,0,0,1,1.16-1.16h0A1.2,1.2,0,0,1,246.29,374.86Z"/><path class="cls-4" d="M269.28,377.32V393.4a1.6,1.6,0,0,1-1.62,1.61h-18.2a1.6,1.6,0,0,1-1.62-1.61V377.32a1.6,1.6,0,0,1,1.62-1.62h18.2A1.6,1.6,0,0,1,269.28,377.32Z"/><path class="cls-31" d="M267.34,354.46v30.67a1.94,1.94,0,0,1-1.94,1.94H254.23a2,2,0,0,1-1.93-1.94V354.46a1.94,1.94,0,0,1,1.93-1.94H265.4A1.94,1.94,0,0,1,267.34,354.46Z"/><path class="cls-4" d="M467.46,384.27H450.54a3.89,3.89,0,0,1-3.88-3.88V343.05a3.88,3.88,0,0,1,3.88-3.87h16.92a3.89,3.89,0,0,1,3.88,3.87v37.34A3.9,3.9,0,0,1,467.46,384.27Z"/><path class="cls-2" d="M453.57,357.2v7.56a1.65,1.65,0,0,0,.07.58l3.23,18.47a2,2,0,0,1,.06.59v7.88H491.1v-8.21L469,383.43h0l-2.78-18.67c0-.2-.06-.39-.06-.58l.13-6.92a3.42,3.42,0,0,0-3.43-3.48h-5.81A3.46,3.46,0,0,0,453.57,357.2Z"/><path class="cls-4" d="M425.92,383.56H409a3.9,3.9,0,0,1-3.88-3.88V342.34a3.89,3.89,0,0,1,3.88-3.87h16.92a3.88,3.88,0,0,1,3.88,3.87v37.34A3.89,3.89,0,0,1,425.92,383.56Z"/><path class="cls-2" d="M412.75,355.78v7.56a1.94,1.94,0,0,0,.06.58L416,382.39a1.68,1.68,0,0,1,.07.58v7.89h34.17v-8.21l-22.1-.64h0l-2.77-18.67c0-.2-.07-.39-.07-.58l.13-6.92a3.41,3.41,0,0,0-3.42-3.48h-5.82A3.41,3.41,0,0,0,412.75,355.78Z"/><path class="cls-4" d="M383.74,384.27H366.82a3.9,3.9,0,0,1-3.88-3.88V343.05a3.89,3.89,0,0,1,3.88-3.87h16.92a3.89,3.89,0,0,1,3.88,3.87v37.34A3.9,3.9,0,0,1,383.74,384.27Z"/><path class="cls-2" d="M369.85,357.2v7.56a1.65,1.65,0,0,0,.07.58l3.23,18.47a2,2,0,0,1,.06.59v7.88h34.17l.84-8.85H385.29l-2.78-18.67c0-.2-.06-.39-.06-.58l.13-6.92a3.42,3.42,0,0,0-3.42-3.48h-5.82A3.46,3.46,0,0,0,369.85,357.2Z"/><path class="cls-2" d="M352.28,450.22h10.14a2.52,2.52,0,0,1,2.52,2.52h0a2.52,2.52,0,0,1-2.52,2.52H352.28a2.52,2.52,0,0,1-2.52-2.52h0A2.57,2.57,0,0,1,352.28,450.22Z"/><path class="cls-2" d="M353,383.43h10.08a3.23,3.23,0,0,1,3.23,3.23h0a3.24,3.24,0,0,1-3.23,3.23H353a3.24,3.24,0,0,1-3.23-3.23h0A3.24,3.24,0,0,1,353,383.43Z"/><path class="cls-2" d="M352.8,455.26h0a3,3,0,0,1-3-3V386.4a3,3,0,0,1,3-3h0a3,3,0,0,1,3,3v65.89A3.12,3.12,0,0,1,352.8,455.26Z"/><path class="cls-4" d="M449,497.64H386.84a3.31,3.31,0,0,1-3.29-3.3V456.81a3.3,3.3,0,0,1,3.29-3.29H449a3.31,3.31,0,0,1,3.29,3.29v37.53A3.35,3.35,0,0,1,449,497.64Z"/><polygon class="cls-2" points="394.14 453.06 394.14 462.49 391.95 476.83 391.95 485.75 446.4 485.75 446.4 479.16 450.21 464.11 450.21 452.55 394.14 453.06"/><rect class="cls-32" x="361.13" y="390.34" width="123.57" height="64.79"/><circle class="cls-33" cx="472.37" cy="403.52" r="4.59"/><rect class="cls-2" x="183.35" y="399.67" width="14.83" height="14.57"/><rect class="cls-2" x="93.06" y="399.67" width="14.83" height="14.57"/><circle class="cls-2" cx="207.96" cy="494.36" r="6.04"/><path class="cls-34" d="M125.67,404.65v-9.51s-5.71-7.87-10.89,0v10l8.46-.32Z"/><path class="cls-35" d="M123.24,405.57v-9.31s-3.41-4.6-5.9,0V406Z"/><path class="cls-34" d="M136.56,404.65v-9.51s-5.71-7.87-10.89,0v10l8.46-.32Z"/><path class="cls-35" d="M134.13,405.57v-9.31s-3.41-4.6-5.9,0V406Z"/><path class="cls-34" d="M147.78,405.11V395.6s-5.71-7.88-10.89,0v10l8.47-.32Z"/><path class="cls-35" d="M145.36,406.1v-9.32s-3.42-4.59-5.91,0v9.71Z"/><path class="cls-34" d="M158.68,405.11V395.6s-5.71-7.88-10.9,0v10l8.47-.32Z"/><path class="cls-35" d="M156.25,406.1v-9.32s-3.41-4.59-5.91,0v9.71Z"/><path class="cls-34" d="M170,405.57v-9.51s-5.71-7.88-10.89,0v10l8.47-.33Z"/><path class="cls-35" d="M167.54,406.56v-9.32s-3.42-4.59-5.91,0V407Z"/><path class="cls-34" d="M180.86,405.57v-9.51s-5.71-7.88-10.9,0v10l8.47-.33Z"/><path class="cls-35" d="M178.36,406.56v-9.32s-3.41-4.59-5.9,0V407Z"/><path class="cls-34" d="M123.18,498.17v9.51s-5.71,7.88-10.9,0v-10l8.47.32Z"/><path class="cls-35" d="M120.68,497.25v9.32s-2.75,4.59-5.25,0l-.65-9.72Z"/><path class="cls-34" d="M134.07,498.17v9.51s-5.71,7.88-10.24,0v-10l7.81.32Z"/><path class="cls-35" d="M131.58,497.25v9.32s-3.42,4.59-5.91,0v-9.72Z"/><path class="cls-34" d="M145.29,497.71v9.51s-5.71,7.88-10.89,0v-10l8.46.33Z"/><path class="cls-35" d="M142.86,496.79v9.32s-3.41,4.59-5.25,0v-9.72Z"/><path class="cls-34" d="M156.18,497.71v9.51s-5.71,7.88-10.89,0v-10l8.47.33Z"/><path class="cls-35" d="M154.41,496.79v9.32s-4.07,4.59-6.56,0v-9.72Z"/><path class="cls-34" d="M167.4,497.25v9.51s-5.7,7.88-10.89,0v-10l8.47.33Z"/><path class="cls-35" d="M165,496.33v9.32s-3.42,4.59-5.91,0v-9.72Z"/><path class="cls-34" d="M178.3,497.25v9.51s-5.71,7.88-10.9,0v-10l8.47.33Z"/><path class="cls-35" d="M175.87,496.33v9.32s-3.41,4.59-5.91,0v-9.72Z"/><path class="cls-34" d="M99.55,428.61H90s-7.88-5.71,0-10.9h10l-.33,8.47Z"/><path class="cls-35" d="M100.47,426.18H91.15s-4.59-3.41,0-5.91h9.71Z"/><path class="cls-34" d="M99.55,439.5H90s-7.88-5.71,0-10.89h10l-.33,8.46Z"/><path class="cls-35" d="M100.47,437.07H91.15s-4.59-3.41,0-5.9h9.71Z"/><path class="cls-34" d="M100,450.72H90.5s-7.88-5.71,0-10.89h10l-.33,8.46Z"/><path class="cls-35" d="M101,448.29H91.68s-4.6-3.41,0-5.9h9.71Z"/><path class="cls-34" d="M100,461.61H90.5s-7.88-5.7.65-10.89h10l-1,8.47Z"/><path class="cls-35" d="M101,459.19H91.68s-4.6-3.42,0-5.91h9.71Z"/><path class="cls-34" d="M100.47,472.9H91s-7.88-5.71,0-10.89h10l-.33,8.46Z"/><path class="cls-35" d="M101.45,470.41H92.14s-3.94-3.41.65-5.91h9.06Z"/><path class="cls-34" d="M100.47,483.79H91s-7.88-5.7,0-10.89h10l-.33,8.47Z"/><path class="cls-35" d="M102.11,481.3H92.79s-5.25-3.41-.65-5.91h9.71Z"/><path class="cls-34" d="M192.14,429.53h9.52s7.87-5.71,0-10.9h-10l.33,8.47Z"/><path class="cls-35" d="M191.23,427h9.31s4.6-3.41,0-5.9h-9.71Z"/><path class="cls-34" d="M192.14,440.42h9.52s7.87-5.71,0-10.89h-10L192,438Z"/><path class="cls-35" d="M191.23,437.92h9.31s4.6-3.41,0-5.9h-9.71Z"/><path class="cls-34" d="M191.68,451.64h9.52s7.87-5.71,0-10.89h-10l.32,8.46Z"/><path class="cls-35" d="M190.7,449.21H200s4.59-3.41,0-5.9h-9.71Z"/><path class="cls-34" d="M191.68,462.53h9.52s7.87-5.71,0-10.89h-10l.32,8.47Z"/><path class="cls-35" d="M190.7,460.11H200s4.59-3.42,0-5.91h-9.71Z"/><path class="cls-34" d="M191.23,473.75h9.51s7.87-5.7,0-10.89h-10l.32,8.47Z"/><path class="cls-35" d="M190.24,471.33h9.32s4.59-3.42,0-5.91h-9.71Z"/><path class="cls-34" d="M191.23,484.65h9.51s7.87-5.71,0-10.9h-10l.32,8.47Z"/><path class="cls-35" d="M190.24,482.22h9.32s4.59-3.41,0-5.91h-9.71Z"/><rect class="cls-32" x="99.49" y="404.65" width="94.04" height="94.04"/><circle class="cls-33" cx="185.25" cy="490.55" r="3.81"/><rect class="cls-2" x="348.16" y="559.91" width="3.69" height="74.77" rx="1.84" transform="translate(-247.29 947.29) rotate(-90)"/><rect class="cls-2" x="347.92" y="497.29" width="4.16" height="74.77" rx="2.08" transform="translate(-184.68 884.68) rotate(-90)"/><rect class="cls-2" x="351.76" y="563.65" width="66.54" height="4.43" rx="2.22" transform="translate(-180.83 950.9) rotate(-90)"/><rect class="cls-2" x="281.19" y="564.02" width="66.54" height="3.69" rx="1.84" transform="translate(-251.41 880.33) rotate(-90)"/><rect class="cls-2" x="399.03" y="578.49" width="4.65" height="16" rx="2.33" transform="translate(-185.14 987.84) rotate(-90)"/><rect class="cls-2" x="393.78" y="584.47" width="15.92" height="4.24" rx="2.12" transform="translate(-184.85 988.33) rotate(-90)"/><rect class="cls-36" x="313.77" y="573.36" width="15.51" height="26.88" rx="1.97" transform="translate(-265.27 908.32) rotate(-90)"/><rect class="cls-37" x="316.04" y="576.07" width="10.96" height="21.45" rx="1.37" transform="translate(-265.27 908.32) rotate(-90)"/><rect class="cls-36" x="313.77" y="552.43" width="15.51" height="26.88" rx="1.97" transform="translate(-244.34 887.39) rotate(-90)"/><rect class="cls-37" x="316.04" y="555.14" width="10.96" height="21.45" rx="1.37" transform="translate(-244.34 887.39) rotate(-90)"/><rect class="cls-36" x="314.64" y="532.12" width="15.51" height="26.88" rx="1.97" transform="translate(-223.16 867.96) rotate(-90)"/><rect class="cls-37" x="316.92" y="534.83" width="10.96" height="21.45" rx="1.37" transform="translate(-223.16 867.96) rotate(-90)"/><rect class="cls-36" x="370.75" y="573.15" width="15.51" height="26.88" rx="1.97" transform="translate(-208.08 965.1) rotate(-90)"/><rect class="cls-37" x="373.03" y="575.87" width="10.96" height="21.45" rx="1.37" transform="translate(-208.08 965.1) rotate(-90)"/><rect class="cls-36" x="370.39" y="553.09" width="15.51" height="26.88" rx="1.97" transform="translate(-188.39 944.67) rotate(-90)"/><rect class="cls-37" x="372.66" y="555.81" width="10.96" height="21.45" rx="1.37" transform="translate(-188.39 944.67) rotate(-90)"/><rect class="cls-36" x="370.75" y="532.12" width="15.51" height="26.88" rx="1.97" transform="translate(-167.05 924.06) rotate(-90)"/><rect class="cls-37" x="373.03" y="534.83" width="10.96" height="21.45" rx="1.37" transform="translate(-167.05 924.06) rotate(-90)"/><polygon class="cls-2" points="300.94 543.31 310.89 533.06 300.94 533.06 300.94 543.31"/><path class="cls-1" d="M73.84,1131.67c-.13-2.42-.26-1.88,1.81-1.94H76c1.93.1,1.84-.35,1.74,1.94C76.44,1131.25,75.11,1131.67,73.84,1131.67Z"/><path class="cls-1" d="M72.44,1132.08a8.94,8.94,0,0,0-3.42.6,2.12,2.12,0,0,0-.89.89c0-3.17-.64-2.38,2.28-3.17C72.89,1129.73,72.51,1129.48,72.44,1132.08Z"/><path class="cls-4" d="M79,1132.87c.54-1.11,1.39-.92,2.25-.54a25.66,25.66,0,0,1,6.6,3.84l-7.71.06c-.83,0-1.11-.41-1.14-1.11A15.36,15.36,0,0,1,79,1132.87Z"/><path class="cls-1" d="M79,1132.87V1130a21.11,21.11,0,0,1,12,6.19H87.77a25.83,25.83,0,0,0-6.6-3.84C80.34,1132,79.49,1131.76,79,1132.87Z"/><path class="cls-4" d="M65.75,1138.39c-1.4-.13-2.73-.06-4.13-.06a7.47,7.47,0,0,1,2.51-2.64,9.81,9.81,0,0,1,2.73-1.65c0,1.08,0,2.23,0,3.34C66.86,1138,66.64,1138.45,65.75,1138.39Z"/><path class="cls-1" d="M58.67,1138.33a21.24,21.24,0,0,1,8.22-6.7V1134a10,10,0,0,0-2.73,1.65,7.12,7.12,0,0,0-2.5,2.64Z"/><path class="cls-1" d="M94.62,1141.47H92.21a7.64,7.64,0,0,0-3.18-3.94c.92-.19,1.84.16,2.76-.22.2-.06.26.16.39.26A20.23,20.23,0,0,1,94.62,1141.47Z"/><path class="cls-4" d="M67.72,1143.53h.41A.63.63,0,0,1,67.72,1143.53Z"/><path class="cls-38" d="M67.33,1144.86a3.44,3.44,0,0,1-1.8,1.43,2.2,2.2,0,0,1-2.51-1,2.3,2.3,0,0,1,.54-2.73,2.37,2.37,0,0,1,3,.19c.31.38.6.76,1.07.79a3,3,0,0,1-2.22-.48,1,1,0,0,0-1.52.42,1.22,1.22,0,0,0,.19,1.62,1.1,1.1,0,0,0,1.59.15A1.84,1.84,0,0,1,67.33,1144.86Z"/><path class="cls-1" d="M95.92,1144.86c.7,2.19.63,2.22-1.62,2.13,0,0-.06,0-.13,0,.13-1.53-.66-2.79-1.2-4.13C95.86,1142.74,95,1142.1,95.92,1144.86Z"/><path class="cls-4" d="M76.69,1149.15c-6.53-.13-13.07-.19-19.6-.29a16.43,16.43,0,0,1,3.49-9.26,38.47,38.47,0,0,1,5.36.09c1.27.16,2.09-.6,2.16-2.06s.06-2.66.06-4a2,2,0,0,1,.89-.89,9,9,0,0,1,3.42-.6c.13,3.49.1,7,0,10.47,0,.7-.42,1-1.11,1l-3.24-.06h-.41c-.48,0-.76-.41-1.08-.79a2.3,2.3,0,0,0-3.05-.19,2.33,2.33,0,0,0-.54,2.73,2.12,2.12,0,0,0,2.51,1,3.5,3.5,0,0,0,1.81-1.43l3.81,0c1.84,0,2.6-.76,2.63-2.6,0-3.33,0-6.66,0-10a4.51,4.51,0,0,1,.06-.6c1.3,0,2.64-.42,3.9,0,0,1.33,0,2.63.07,3.9a1.64,1.64,0,0,0,1.43,1.81,8,8,0,0,0,1.45.09c2.76,0,5.56,0,8.35.06a7.67,7.67,0,0,1,3.17,3.94c-3.9,0-7.84.06-11.74.06-2,0-2.69.73-2.6,2.7a14.49,14.49,0,0,1-.13,3.9C77.65,1148.77,77.39,1149.15,76.69,1149.15Z"/><path class="cls-1" d="M57.09,1148.86c-2.86,0-2.51.44-2-2.32a21.24,21.24,0,0,1,2.28-6.28,1.11,1.11,0,0,1,1.27-.73,9.91,9.91,0,0,0,2,.07A16.22,16.22,0,0,0,57.09,1148.86Z"/><path class="cls-1" d="M96.74,1150.22c-.06,2.35.42,2.07-2.15,2v-2.82c0-.48-.07-.92-.61-1.11.45,0,.86-.1,1.27-.1,1.43,0,1.43,0,1.49,1.43Z"/><path class="cls-1" d="M57.53,1154.57c-3,0-2.41.67-2.73-2.35-.22-2.12-.16-2.12,2-2.09.19,0,.32,0,.51,0-.7,1.14-.16,2.32,0,3.46A2.86,2.86,0,0,0,57.53,1154.57Z"/><path class="cls-39" d="M70.67,1154.48a1,1,0,0,0,0,1.49,1.17,1.17,0,0,0,1.59.25,2,2,0,0,1,1.81-.35c-.32.13-.38.45-.57.67a2.24,2.24,0,0,1-2.51.89,2.52,2.52,0,0,1-1.62-2.26,2.19,2.19,0,0,1,1.43-2.09,2.36,2.36,0,0,1,2.7.86c.16.19.32.41.47.6a2.15,2.15,0,0,1-1.74-.32A1.06,1.06,0,0,0,70.67,1154.48Z"/><path class="cls-1" d="M91.26,1164.41v-3.49c.12-.07.25-.1.31-.19a15.87,15.87,0,0,0,2.86-7.24h2.06A20.61,20.61,0,0,1,91.26,1164.41Z"/><path class="cls-4" d="M94.43,1153.49a15.74,15.74,0,0,1-2.86,7.24c-.06.09-.19.12-.31.19-.23-2.1-.16-4.22-.19-6.32,0-.6.28-.85.85-1A11,11,0,0,1,94.43,1153.49Z"/><path class="cls-38" d="M64.83,1163.68a1.72,1.72,0,0,1-.76-1.78,2.25,2.25,0,0,1,1.58-2.09,1,1,0,0,1-.31,1.23,1.29,1.29,0,1,0,1.71,1.94,1.27,1.27,0,0,0,.16-1.91,1.4,1.4,0,0,1-.22-1.17,7.43,7.43,0,0,1,.76.6,2,2,0,0,1,.44,2.38,2.14,2.14,0,0,1-2.73,1A2,2,0,0,1,64.83,1163.68Z"/><path class="cls-39" d="M83.32,1163.68c-.38-.32-.79-.64-1.2-1a3.42,3.42,0,0,1,2.16.26,1.09,1.09,0,0,0,1.52-.38,1.17,1.17,0,0,0-.32-1.59,1,1,0,0,0-1.52.16c-.19.19-.29.32-.6.32-1-.07-1.88-.1-2.83-.13a5,5,0,0,1,.67,0,1.76,1.76,0,0,0,1.68-.79,2.48,2.48,0,0,1,3.49-.26,2.17,2.17,0,0,1,.29,3,4.6,4.6,0,0,1-.39.38A2.26,2.26,0,0,1,83.32,1163.68Z"/><path class="cls-4" d="M64.07,1161.9a1.77,1.77,0,0,0,.76,1.78l-.89,1.11a21.64,21.64,0,0,1-5.49-7.62,4.42,4.42,0,0,1-.25-1.33l6,0c1.17,0,1.36.22,1.39,1.39,0,.89.07,1.78.07,2.64A2.08,2.08,0,0,0,64.07,1161.9Z"/><path class="cls-4" d="M82.12,1162.72a12,12,0,0,1,1.2,1,2.3,2.3,0,0,0,3,.09l1,1.43c-3.05,2.16-6.35,3.81-10.31,3.87a3.73,3.73,0,0,0-2.51-.06,5.62,5.62,0,0,1-2.22-.48c0-1.55,0-3.11,0-4.7,0-.85.44-1.2,1.27-1.2C76.38,1162.63,79.23,1162.66,82.12,1162.72Z"/><path class="cls-4" d="M64.83,1163.68a2.19,2.19,0,0,0,.6.28,2.15,2.15,0,0,0,2.73-1,2,2,0,0,0-.44-2.37,6.44,6.44,0,0,0-.77-.61c0-1-.06-2.09-.12-3.11a2,2,0,0,0-2.16-2.15c-2.38-.07-4.79,0-7.17-.07a3.38,3.38,0,0,1-.29-.95c-.12-1.14-.66-2.32,0-3.46,4.15.07,8.34.13,12.5.16,2.22,0,4.44,0,6.66,0,1.74,0,2.6-.73,2.66-2.5.07-1.34,0-2.67,0-4,0-.73.29-1,1-1,4.28,0,8.59,0,12.91,0,.54,1.33,1.33,2.6,1.2,4.12-2.63.1-5.33.16-8,.19a2.25,2.25,0,0,0-2.48,2.63,27,27,0,0,1,0,3.24c-.1,1.21-.42,1.55-1.65,1.59-2.7.09-5.43.06-8.12,0l-.48-.6a2.37,2.37,0,0,0-2.7-.85,2.16,2.16,0,0,0-1.42,2.09,2.54,2.54,0,0,0,1.61,2.25,2.22,2.22,0,0,0,2.51-.89c.19-.22.22-.57.57-.66,2.73,0,5.49.19,8.22,0,1.84-.16,2.73-1,2.73-2.86v-3.46c0-.76.34-1.2,1.17-1.2,2.63,0,5.23-.07,7.84-.1.57.19.6.64.6,1.11v2.83c-.79,0-1.56,0-2.35.09a2.32,2.32,0,0,0-2.47,2.7c.06,2.47.09,5,.12,7.42a4.53,4.53,0,0,1-1.3,1.84l-1.33,1-1-1.43a3.45,3.45,0,0,0,.39-.38,2.19,2.19,0,0,0-.29-3,2.49,2.49,0,0,0-3.49.25,1.77,1.77,0,0,1-1.68.8,3.74,3.74,0,0,0-.67,0,7.71,7.71,0,0,0-1,0c-2,0-3.9,0-5.9,0A2.31,2.31,0,0,0,71,1164a32.21,32.21,0,0,1-.1,3.8c-.19.41-.57.29-.86.19a7.64,7.64,0,0,1-1.68-.47,16.36,16.36,0,0,1-4.44-2.7Z"/><path class="cls-1" d="M55.44,1155.84h2.73a4.42,4.42,0,0,0,.25,1.33,21.74,21.74,0,0,0,5.49,7.62,16.34,16.34,0,0,0,4.44,2.69A9.77,9.77,0,0,0,70,1168c.29.09.64.19.86-.19,0,.32.09.63.09,1,0,2,0,2-1.93,1.37a20.56,20.56,0,0,1-13.39-13.36A6.91,6.91,0,0,1,55.44,1155.84Z"/><path class="cls-1" d="M89.89,1162.44c.29,1-.06,1.93.32,2.89,0,.09-.19.28-.32.44a21.17,21.17,0,0,1-10.75,5.14c-1.08.19-1.84-.48-2.19-1.84,3.93-.06,7.23-1.71,10.31-3.87.44-.29.89-.6,1.33-1A4.6,4.6,0,0,0,89.89,1162.44Z"/><path class="cls-40" d="M97.12,1163.71c.48-.48,1-.89,1.75-.48a.84.84,0,0,1,.44.79c.07.42-.19.67-.47.92-2.48,2.48-5,4.92-7.46,7.4a1.68,1.68,0,0,1-1,.6.91.91,0,0,1-1-.41.83.83,0,0,1,.1-1.08,1.85,1.85,0,0,1,.38-.41C92.21,1168.59,94.68,1166.15,97.12,1163.71Z"/><path class="cls-40" d="M66.89,1131.63a21,21,0,0,0-8.22,6.7h3c1.39,0,2.72-.07,4.12.06.89.1,1.08-.32,1.11-1,0-1.11,0-2.26,0-3.34ZM79,1130v2.89c0,.73-.07,1.46,0,2.25s.32,1.11,1.15,1.11l7.71-.06H91A21.29,21.29,0,0,0,79,1130Zm-21.86,18.88,19.6.29c.7,0,1-.38,1.08-1a15.93,15.93,0,0,0,.13-3.9c-.13-2,.6-2.7,2.6-2.7,3.9,0,7.84,0,11.74-.06h2.41a20.23,20.23,0,0,0-2.44-3.9c-.13-.13-.19-.32-.38-.26-.92.38-1.84,0-2.76.22-2.76,0-5.56,0-8.35-.06a7.85,7.85,0,0,1-1.46-.09,1.58,1.58,0,0,1-1.42-1.81c0-1.3,0-2.6-.07-3.9.13-2.29.19-1.84-1.74-1.94h-.38c-2.07.06-1.91-.48-1.81,1.94a3.69,3.69,0,0,0-.06.6c0,3.33,0,6.66,0,10,0,1.84-.8,2.6-2.64,2.6l-3.81,0a1.82,1.82,0,0,0-1.61.38,1.1,1.1,0,0,1-1.59-.15,1.22,1.22,0,0,1-.19-1.62,1,1,0,0,1,1.52-.42,2.91,2.91,0,0,0,2.22.48.67.67,0,0,0,.42,0c1.07,0,2.15,0,3.23.06.7,0,1.11-.31,1.11-1,.07-3.49.1-7,0-10.47.06-2.63.45-2.35-2-1.68-3,.79-2.28,0-2.28,3.17,0,1.36,0,2.67-.07,4s-.88,2.22-2.15,2.06a43.72,43.72,0,0,0-5.36-.09,9.88,9.88,0,0,1-2-.07,1.13,1.13,0,0,0-1.27.73,21.24,21.24,0,0,0-2.28,6.28C54.58,1149.3,54.23,1148.89,57.09,1148.86Zm34.17,12v3.49a20.45,20.45,0,0,0,5.23-10.91H94.43a11.4,11.4,0,0,0-2.54.13c-.57.12-.89.38-.86,1C91.1,1156.7,91,1158.79,91.26,1160.88Zm-1.05,4.45c-.38-1,0-1.94-.32-2.89,0-2.48-.06-5-.13-7.42,0-1.75.77-2.64,2.48-2.7.79-.07,1.55-.07,2.35-.1,2.57.07,2.09.35,2.15-2v-.6c-.06-1.46-.06-1.46-1.49-1.43-.41,0-.82.07-1.27.1-2.6,0-5.2.09-7.83.09a1.06,1.06,0,0,0-1.18,1.21v3.46c0,1.84-.88,2.69-2.72,2.85-2.73.19-5.49.07-8.22,0a2,2,0,0,0-1.81.34,1.2,1.2,0,0,1-1.59-.25,1,1,0,0,1,0-1.49,1,1,0,0,1,1.55-.19,2.21,2.21,0,0,0,1.75.32c2.69.09,5.42.12,8.12,0,1.23,0,1.55-.38,1.65-1.59a26.76,26.76,0,0,0,0-3.23,2.23,2.23,0,0,1,2.48-2.64l8-.19c.07,0,.1,0,.13,0,2.25.1,2.32.07,1.62-2.12-.89-2.73-.06-2.13-3-2-4.32,0-8.63,0-12.91,0-.67,0-1,.28-1,1,0,1.33.07,2.67,0,4-.09,1.78-.95,2.54-2.66,2.5-2.22,0-4.44,0-6.66,0q-6.28,0-12.5-.16c-.19,0-.32,0-.51,0-2.13,0-2.22,0-2,2.1.32,3-.22,2.38,2.73,2.34,2.38,0,4.79,0,7.17.07a2,2,0,0,1,2.16,2.16c.06,1,.09,2.09.12,3.1a1.46,1.46,0,0,0,.23,1.18A1.22,1.22,0,0,1,67,1163a1.27,1.27,0,0,1-1.84,0,1.25,1.25,0,0,1,.12-1.9,1,1,0,0,0,.32-1.24c0-.86,0-1.75-.06-2.63,0-1.15-.19-1.37-1.4-1.4l-6,0H55.41c.09.38.15.6.22.89A20.56,20.56,0,0,0,69,1170.12c1.93.66,1.93.63,1.93-1.37,0-.32-.06-.63-.09-1A30.3,30.3,0,0,0,71,1164c0-1.81.89-2.63,2.63-2.63,2,0,3.91,0,5.91,0,.31,0,.63,0,1,0,1,0,1.87.07,2.82.13.32,0,.41-.16.61-.32a1,1,0,0,1,1.52-.16,1.18,1.18,0,0,1,.32,1.59,1.09,1.09,0,0,1-1.53.38,3.37,3.37,0,0,0-2.15-.25c-2.89-.07-5.75-.1-8.63-.13-.83,0-1.3.35-1.27,1.2,0,1.59,0,3.15,0,4.7,0,.48,0,.92,0,1.4a1.77,1.77,0,0,0,.47,1.36c.51.57,1.24,1.4.92,2s-1.27,0-1.87-.09c-7.74-1.43-13.55-5.49-17.19-12.54A21.53,21.53,0,0,1,52,1149.88a23.25,23.25,0,0,1,19.92-22.31,23.62,23.62,0,0,1,26.43,16.66,23.15,23.15,0,0,1-18.11,28.9c-3.43.6-5.37-.76-5.84-4.09a3.76,3.76,0,0,1,2.5.06c.35,1.4,1.08,2,2.19,1.84a21.32,21.32,0,0,0,10.76-5.14C90,1165.61,90.24,1165.39,90.21,1165.33Z"/><path class="cls-40" d="M92.43,1173c2.38-2.28,4.73-4.6,7.14-6.85.38-.38.82-.6,1.27-.19a.93.93,0,0,1,.06,1.46c-2.32,2.35-4.7,4.69-7,7.07a1.11,1.11,0,0,1-1.37.23.67.67,0,0,1-.44-.77A1.08,1.08,0,0,1,92.43,1173Z"/><path class="cls-40" d="M102.61,1170.21c-.89,1-.66,2.32-1.11,3.46a3,3,0,0,1-3.07,1.9,1.7,1.7,0,0,0-1.46.61,1.05,1.05,0,0,1-1.62.15c-.6-.54-.29-1.07.12-1.52,1.88-1.9,3.78-3.84,5.62-5.74a.89.89,0,0,1,1-.22.93.93,0,0,1,.57,1C102.64,1170,102.71,1170.15,102.61,1170.21Z"/><path class="cls-4" d="M470.65,1151.19a.56.56,0,0,1-.38,0c-.41-3-2.94-4.94-3.56-7.85-.34-1.58-.58-3.15-2.33-4.25-1.17-.72-.35-2.06,1.16-2.16,1.68-.1,3.4,0,5.08,0,.82,0,1.85.21,2.26-.75.68-1.61,2-1.44,3.32-1.44,5.56,0,11.11,0,16.66,0,1.14,0,2.64.1,2.23-1.61s-.82-3.77-3.25-4h0l-.59-.58h0c-1.82-2.75-7.2-4-10.84-2.27-2.33,1.13-5.24,1.85-5.55,5.25a.46.46,0,0,1-.07.38,7.12,7.12,0,0,1-6.34,2.43c-1.78-.24-2.3-.72-1.64-2.5,2.43-6.58,7.06-10.08,13.78-12.28s17.31,3,20.05,9.23c2.16,4.93,2.3,4.9-2.91,5.52-.66.06-1.41-.07-1.41.92,0,.65.07,1.61.82,1.58,2.2-.07,4.7,1.37,6.45-1.13.51-.76,1.3-1.27,1.61-.18s.27,3.16-.27,3.4c-2.82,1.37-2.54,4.25-3.5,6.41a18.88,18.88,0,0,1-22,10.25C476.07,1154.72,473.8,1152.11,470.65,1151.19Zm23.76-10.67h-20c-2.23.59-1.27,2-.62,3a11.73,11.73,0,0,0,9.53,6.06c5.35.45,9-2,11.89-6.06C496,1142.55,496.57,1141,494.41,1140.52Z"/><path class="cls-2" d="M485.32,1192.73c-8.94.62-14.63-3.7-18.44-10.76s-2.54-14.16,1.82-20.78c1.3-2,2.23-1.85,3.94-.34,2.19,2,2.81,3.43,1,6.28-3.19,5.07-1.65,12.06,2.88,15.87s11.89,3.73,16.69-.24c4.35-3.6,5.42-10.29,2.64-15.77-.55-1.1-2.23-2.06-1.3-3.46a17.72,17.72,0,0,1,3.7-3.84c1-.83,1.47.44,1.92,1,6.31,7.37,5.52,20.26-1.61,26.77C494.72,1191,490.43,1193.56,485.32,1192.73Z"/><path class="cls-4" d="M491.8,1129.14c2.44.24,2.85,2.27,3.26,4s-1.13,1.62-2.23,1.62H476.17c-1.3,0-2.64-.18-3.33,1.43-.41,1-1.44.72-2.26.76-1.68,0-3.39,0-5.07,0-1.51.07-2.3,1.41-1.17,2.16,1.75,1.1,2,2.68,2.33,4.25.62,2.92,3.16,4.87,3.57,7.85-2.13-1.4-3-3.66-4.08-5.79-1-1.82-.89-4-3.26-5.28-1.57-.82-.41-5.83,1.34-6.82,1.58-.89,1.82-2.71,2.3-4,3.53-9.87,18-14.88,27.76-8.81a20.57,20.57,0,0,1,8.2,9c.79,1.68.85,3.67,3.29,4.39,1.47.44,1,6.3-.52,6.82-1.23.44-1.4,1.23-1.68,2.26-3.46,13.37-20.53,19-31.33,10.28-.72-.58-1.54-1.09-1.61-2.19,3.19.93,5.42,3.53,8.71,4.42a18.86,18.86,0,0,0,22-10.25c1-2.19.72-5,3.5-6.41.54-.27.58-2.33.27-3.39s-1.06-.58-1.61.17c-1.75,2.5-4.29,1.06-6.45,1.13-.72,0-.82-.92-.82-1.58,0-1,.79-.85,1.41-.92,5.21-.62,5.07-.55,2.91-5.52-2.74-6.27-13.26-11.45-20.05-9.22s-11.35,5.72-13.78,12.27c-.65,1.78-.14,2.26,1.64,2.5a7.08,7.08,0,0,0,6.34-2.43c0,1.41.83,1.61,2,1.58,4.11-.07,8.22,0,12.37-.07,1.54,0,3.64.79,4.46-.58S492,1130.65,491.8,1129.14Zm-27,6.55c.07-.14.14-.31.2-.45-.13-.06-.3-.2-.44-.17a.46.46,0,0,0-.17.41C464.41,1135.59,464.62,1135.62,464.79,1135.69Z"/><path class="cls-41" d="M494.41,1140.49c2.16.48,1.54,2.06.85,3-2.88,4-6.54,6.51-11.89,6.06a11.77,11.77,0,0,1-9.53-6.06c-.65-1-1.61-2.44.62-3a1.23,1.23,0,0,0,0,.38.84.84,0,0,0,0,1.1l.41.72.45.75c5,7,13.4,6.93,18.27-.1a2.29,2.29,0,0,0,.89-2.43A1,1,0,0,0,494.41,1140.49Z"/><path class="cls-2" d="M13.66,104.76V107a9.3,9.3,0,0,0,9.27,9.27h12.7A9.3,9.3,0,0,0,44.9,107v-2.21a9.3,9.3,0,0,0-9.27-9.27H22.93A9.3,9.3,0,0,0,13.66,104.76Zm20.54-3.24a4.35,4.35,0,0,1,0,8.7H24.29a4.35,4.35,0,0,1,0-8.7Z"/><path class="cls-7" d="M24.29,101.52H34.2a4.35,4.35,0,0,1,0,8.7H24.29a4.35,4.35,0,0,1,0-8.7Z"/><circle class="cls-2" cx="36.38" cy="122.77" r="3.32"/><path class="cls-2" d="M41.33,128.63a2.49,2.49,0,0,1,2.49,2.49v17.73a2.49,2.49,0,0,1-4.49,1.49,1.75,1.75,0,0,1-.26-.46h0a92.69,92.69,0,0,1-9.81-9.59c-4.75-5.44-6.91-4.53-6.91-4.53a4.06,4.06,0,0,0-4.08,4.53c.19,4.53,5.82,4.79,5.82,4.79a4.09,4.09,0,0,1,0,4.33,10.86,10.86,0,0,1-9.32-2.59A15.27,15.27,0,0,1,12.37,140c-.13-3.47,1.88-9.68,7.57-10.13s8.35,1.87,8.35,1.87L38.84,141.8V131.12A2.5,2.5,0,0,1,41.33,128.63Z"/><text class="cls-42" transform="translate(509.78 206.36) rotate(-90)">VIN</text><text class="cls-42" transform="translate(512.56 383.56) rotate(-90)">B</text><text class="cls-42" transform="translate(511.14 438.75) rotate(-90)">13</text><text class="cls-42" transform="translate(511.14 475.57) rotate(-90)"><tspan xml:space="preserve">G  </tspan></text><text class="cls-42" transform="translate(512.56 528.85) rotate(-90)"><tspan xml:space="preserve">12  </tspan></text><text class="cls-42" transform="translate(512.56 572.01) rotate(-90)"><tspan xml:space="preserve">R  </tspan></text><text class="cls-42" transform="translate(514.48 965.86) rotate(-90)">34</text><text class="cls-42" transform="translate(512.56 675.19) rotate(-90)">27</text><text class="cls-42" transform="translate(512.56 725.33) rotate(-90)">26</text><text class="cls-42" transform="translate(514.48 770.25) rotate(-90)">25</text><text class="cls-42" transform="translate(514.48 821.4) rotate(-90)">33</text><text class="cls-42" transform="translate(514.48 868.95) rotate(-90)">32</text><text class="cls-42" transform="translate(514.48 919.49) rotate(-90)">35</text><text class="cls-42" transform="translate(514.48 1015.05) rotate(-90)">VN</text><text class="cls-42" transform="translate(514.48 1066.21) rotate(-90)"><tspan xml:space="preserve">VP  </tspan></text><text class="cls-42" transform="translate(512.56 629.52) rotate(-90)"><tspan xml:space="preserve">14  </tspan></text><text class="cls-42" transform="translate(514.48 1113.81) rotate(-90)">EN</text><text class="cls-42" transform="translate(509.78 254.75) rotate(-90)"><tspan xml:space="preserve">VCC          </tspan></text><text class="cls-42" transform="translate(511.14 352.36) rotate(-90)">GND</text><text class="cls-42" transform="translate(511.14 304.08) rotate(-90)">GND</text><text class="cls-43" transform="translate(51.97 938.35) rotate(90)">RX</text><text class="cls-43" transform="translate(51.97 989.51) rotate(90)">TX</text><text class="cls-43" transform="translate(55.44 258.86) rotate(90)">SCL</text><text class="cls-43" transform="translate(51.97 1040.66) rotate(90)">22</text><text class="cls-43" transform="translate(51.97 1090.02) rotate(90)">23</text><text class="cls-43" transform="translate(51.97 892.61) rotate(90)">21</text><text class="cls-43" transform="translate(56.12 306.31) rotate(90)">SDA</text><text class="cls-43" transform="translate(54.72 546.76) rotate(90)">16</text><text class="cls-43" transform="translate(51.97 691.55) rotate(90)">18 </text><text class="cls-43" transform="translate(51.97 656.74) rotate(90)">5</text><text class="cls-43" transform="translate(54.74 508.15) rotate(90)">4</text><text class="cls-43" transform="translate(54.72 414.24) rotate(90)">2</text><text class="cls-43" transform="translate(54.72 363.82) rotate(90)">15</text><text class="cls-43" transform="translate(55.44 209.33) rotate(90)">GND</text><g class="cls-44"><text class="cls-43" transform="translate(54.72 161.13) rotate(90)">VCC </text><text class="cls-45" transform="translate(57.09 215.68) rotate(90)"> </text></g><text class="cls-43" transform="translate(51.97 738.67) rotate(90)">VCC </text><text class="cls-43" transform="translate(54.72 446.26) rotate(90)">GND</text><text class="cls-43" transform="translate(51.97 597.29) rotate(90)">17</text><text class="cls-43" transform="translate(51.97 795.25) rotate(90)">19</text><text class="cls-43" transform="translate(51.97 835.97) rotate(90)">GND</text><path class="cls-4" d="M23.76,639C35,639,43.94,648.76,43.94,660a20.19,20.19,0,1,1-40.37,0C3.57,648.76,12.54,639,23.76,639Zm-9,20.93a9.9,9.9,0,0,0,9.72,9.72,9.72,9.72,0,1,0,0-19.43A9.42,9.42,0,0,0,14.78,660Z"/><path class="cls-4" d="M24.5,592.12A20.19,20.19,0,1,1,4.32,612.31,20.1,20.1,0,0,1,24.5,592.12Zm-9,20.94a9.9,9.9,0,0,0,9.72,9.72,9.72,9.72,0,1,0,0-19.44A9.42,9.42,0,0,0,15.53,613.06Z"/><path class="cls-4" d="M25.25,544.48A20.19,20.19,0,1,1,5.07,564.66,20.1,20.1,0,0,1,25.25,544.48Zm-9,20.18A9.9,9.9,0,0,0,26,574.38,9.72,9.72,0,1,0,26,555,9.42,9.42,0,0,0,16.28,564.66Z"/><path class="cls-4" d="M25.25,497.86A20.19,20.19,0,1,1,5.07,518,20.1,20.1,0,0,1,25.25,497.86Zm-9,20.18A9.9,9.9,0,0,0,26,527.76,9.9,9.9,0,0,0,35.72,518c0-5.23-5.24-9.72-10.47-9.72S16.28,512.81,16.28,518Z"/><path class="cls-4" d="M26,405.87A20.19,20.19,0,1,1,5.81,426.05,20.1,20.1,0,0,1,26,405.87Zm-9,20.18a9.9,9.9,0,0,0,9.72,9.72,9.72,9.72,0,0,0,0-19.44A9.43,9.43,0,0,0,17,426.05Z"/><path class="cls-4" d="M26.75,359A20.19,20.19,0,1,1,6.56,379.2,20.1,20.1,0,0,1,26.75,359Zm-9,20.19a9.89,9.89,0,0,0,9.71,9.71,9.72,9.72,0,1,0,0-19.43A9.41,9.41,0,0,0,17.78,379.2Z"/><path class="cls-4" d="M27.49,262.81A20.19,20.19,0,1,1,7.31,283,20.1,20.1,0,0,1,27.49,262.81Zm-9,20.18a9.9,9.9,0,0,0,9.72,9.72,9.72,9.72,0,1,0,0-19.43A9.42,9.42,0,0,0,18.52,283Z"/><path class="cls-4" d="M25.25,451.3A20.19,20.19,0,1,1,5.07,471.48,20.1,20.1,0,0,1,25.25,451.3Zm-9,20.18A9.9,9.9,0,0,0,26,481.2a9.72,9.72,0,0,0,0-19.44A9.43,9.43,0,0,0,16.28,471.48Z"/><path class="cls-4" d="M23.76,687.64A20.19,20.19,0,1,1,3.57,707.82,20.1,20.1,0,0,1,23.76,687.64ZM14,707.82a9.9,9.9,0,0,0,9.72,9.72,9.72,9.72,0,0,0,0-19.44A9.9,9.9,0,0,0,14,707.82Z"/><path class="cls-4" d="M23.76,734A20.19,20.19,0,1,1,3.57,754.22,20.1,20.1,0,0,1,23.76,734ZM14,754.22a9.9,9.9,0,0,0,9.72,9.72,9.72,9.72,0,0,0,0-19.44A9.9,9.9,0,0,0,14,754.22Z"/><path class="cls-4" d="M23.76,779.85A20.19,20.19,0,1,1,3.57,800,20.1,20.1,0,0,1,23.76,779.85ZM14,800a9.89,9.89,0,0,0,9.72,9.72,9.72,9.72,0,0,0,0-19.44A9.9,9.9,0,0,0,14,800Z"/><path class="cls-4" d="M23.76,826.44A20.19,20.19,0,1,1,3.57,846.63,20.11,20.11,0,0,1,23.76,826.44ZM14,846.63a9.9,9.9,0,0,0,9.72,9.72,9.72,9.72,0,0,0,0-19.44A9.9,9.9,0,0,0,14,846.63Z"/><path class="cls-4" d="M23.76,874.34A20.19,20.19,0,1,1,3.57,894.52,20.1,20.1,0,0,1,23.76,874.34ZM14,894.52a9.9,9.9,0,0,0,9.72,9.72,9.72,9.72,0,0,0,0-19.44C18.52,885.55,14,889.29,14,894.52Z"/><path class="cls-4" d="M23.76,920.17A20.19,20.19,0,1,1,3.57,940.35,20.1,20.1,0,0,1,23.76,920.17ZM14,940.35a9.9,9.9,0,0,0,9.72,9.72,9.72,9.72,0,0,0,0-19.44A9.9,9.9,0,0,0,14,940.35Z"/><path class="cls-4" d="M23.76,968.43A20.19,20.19,0,1,1,3.57,988.62,20.11,20.11,0,0,1,23.76,968.43ZM14,988.62a9.9,9.9,0,0,0,9.72,9.72,9.72,9.72,0,0,0,0-19.44A9.9,9.9,0,0,0,14,988.62Z"/><path class="cls-4" d="M23.76,1015.9a20.19,20.19,0,1,1-20.19,20.19A20.1,20.1,0,0,1,23.76,1015.9ZM14,1036.09a9.9,9.9,0,0,0,9.72,9.72,9.72,9.72,0,0,0,0-19.44A9.89,9.89,0,0,0,14,1036.09Z"/><path class="cls-4" d="M27.49,312A20.19,20.19,0,1,1,7.31,332.23,20.1,20.1,0,0,1,27.49,312Zm-9.71,20.19A9.89,9.89,0,0,0,27.49,342a9.72,9.72,0,1,0,0-19.44A9.89,9.89,0,0,0,17.78,332.23Z"/><path class="cls-4" d="M22.21,1061.28A20.19,20.19,0,1,1,2,1081.46,20.1,20.1,0,0,1,22.21,1061.28Zm-9.72,20.18a9.9,9.9,0,0,0,9.72,9.72,9.72,9.72,0,0,0,0-19.44A9.9,9.9,0,0,0,12.49,1081.46Z"/><path class="cls-4" d="M29,171.3A20.19,20.19,0,1,1,8.8,191.49,20.1,20.1,0,0,1,29,171.3Zm-9,20.19a9.89,9.89,0,0,0,9.72,9.71,9.72,9.72,0,1,0,0-19.43A9.42,9.42,0,0,0,20,191.49Z"/><path class="cls-4" d="M28.24,216.41A20.19,20.19,0,1,1,8.06,236.59,20.1,20.1,0,0,1,28.24,216.41Zm-9,20.18A9.9,9.9,0,0,0,29,246.31a9.72,9.72,0,1,0,0-19.44A9.43,9.43,0,0,0,19.27,236.59Z"/><path class="cls-4" d="M536.21,639c11.21,0,20.18,9.72,20.18,20.93A20.19,20.19,0,1,1,516,660C516,648.76,525,639,536.21,639Zm-9,20.93a9.72,9.72,0,1,0,9.72-9.71A9.42,9.42,0,0,0,527.24,660Z"/><path class="cls-4" d="M537,592.12a20.19,20.19,0,1,1-20.19,20.19A20.1,20.1,0,0,1,537,592.12Zm-9,20.94a9.72,9.72,0,1,0,9.72-9.72A9.42,9.42,0,0,0,528,613.06Z"/><path class="cls-4" d="M536.16,544.16A20.19,20.19,0,1,1,516,564.35,20.11,20.11,0,0,1,536.16,544.16Zm-9,20.19a9.72,9.72,0,1,0,9.72-9.72A9.43,9.43,0,0,0,527.19,564.35Z"/><path class="cls-4" d="M537.7,497.86A20.19,20.19,0,1,1,517.52,518,20.1,20.1,0,0,1,537.7,497.86Zm-9,20.18a9.72,9.72,0,1,0,19.44,0c0-5.23-5.23-9.72-10.47-9.72S528.73,512.81,528.73,518Z"/><path class="cls-4" d="M536.16,405.13A20.19,20.19,0,1,1,516,425.31,20.1,20.1,0,0,1,536.16,405.13Zm-9,20.18a9.72,9.72,0,1,0,9.72-9.72A9.43,9.43,0,0,0,527.19,425.31Z"/><path class="cls-4" d="M535.41,359a20.19,20.19,0,1,1-20.18,20.19A20.11,20.11,0,0,1,535.41,359Zm-9,20.19a9.72,9.72,0,1,0,9.72-9.72A9.43,9.43,0,0,0,526.44,379.14Z"/><path class="cls-4" d="M536.21,265.08A20.19,20.19,0,1,1,516,285.26,20.1,20.1,0,0,1,536.21,265.08Zm-9,20.18a9.72,9.72,0,1,0,9.72-9.72A9.43,9.43,0,0,0,527.24,285.26Z"/><path class="cls-4" d="M536.16,451.3A20.19,20.19,0,1,1,516,471.48,20.1,20.1,0,0,1,536.16,451.3Zm-9,20.18a9.72,9.72,0,1,0,9.72-9.72A9.43,9.43,0,0,0,527.19,471.48Z"/><path class="cls-4" d="M536.21,687.64A20.19,20.19,0,1,1,516,707.82,20.1,20.1,0,0,1,536.21,687.64Zm-9.72,20.18a9.72,9.72,0,1,0,9.72-9.72A9.9,9.9,0,0,0,526.49,707.82Z"/><path class="cls-4" d="M536.21,734A20.19,20.19,0,1,1,516,754.22,20.1,20.1,0,0,1,536.21,734Zm-9.72,20.18a9.72,9.72,0,1,0,9.72-9.72A9.9,9.9,0,0,0,526.49,754.22Z"/><path class="cls-4" d="M536.21,779.85A20.19,20.19,0,1,1,516,800,20.1,20.1,0,0,1,536.21,779.85ZM526.49,800a9.72,9.72,0,1,0,9.72-9.72A9.9,9.9,0,0,0,526.49,800Z"/><path class="cls-4" d="M536.21,826.44A20.19,20.19,0,1,1,516,846.63,20.11,20.11,0,0,1,536.21,826.44Zm-9.72,20.19a9.72,9.72,0,1,0,9.72-9.72A9.9,9.9,0,0,0,526.49,846.63Z"/><path class="cls-4" d="M536.21,874.34A20.19,20.19,0,1,1,516,894.52,20.1,20.1,0,0,1,536.21,874.34Zm-9.72,20.18a9.72,9.72,0,1,0,9.72-9.72C531,885.55,526.49,889.29,526.49,894.52Z"/><path class="cls-4" d="M536.21,920.17A20.19,20.19,0,1,1,516,940.35,20.1,20.1,0,0,1,536.21,920.17Zm-9.72,20.18a9.72,9.72,0,1,0,9.72-9.72A9.9,9.9,0,0,0,526.49,940.35Z"/><path class="cls-4" d="M536.21,968.43A20.19,20.19,0,1,1,516,988.62,20.11,20.11,0,0,1,536.21,968.43Zm-9.72,20.19a9.72,9.72,0,1,0,9.72-9.72A9.9,9.9,0,0,0,526.49,988.62Z"/><path class="cls-4" d="M536.21,1015.9A20.19,20.19,0,1,1,516,1036.09,20.1,20.1,0,0,1,536.21,1015.9Zm-9.72,20.19a9.72,9.72,0,1,0,9.72-9.72A9.9,9.9,0,0,0,526.49,1036.09Z"/><path class="cls-4" d="M537,312a20.19,20.19,0,1,1-20.19,20.19A20.1,20.1,0,0,1,537,312Zm-9.72,20.19a9.72,9.72,0,1,0,9.72-9.72A9.9,9.9,0,0,0,527.24,332.23Z"/><path class="cls-4" d="M534.66,1061.28a20.19,20.19,0,1,1-20.18,20.18A20.1,20.1,0,0,1,534.66,1061.28Zm-9.72,20.18a9.72,9.72,0,1,0,9.72-9.72A9.9,9.9,0,0,0,524.94,1081.46Z"/><path class="cls-4" d="M534.66,169.67a20.19,20.19,0,1,1-20.18,20.18A20.1,20.1,0,0,1,534.66,169.67Zm-9,20.18a9.72,9.72,0,1,0,9.72-9.72A9.43,9.43,0,0,0,525.69,189.85Z"/><path class="cls-4" d="M534.66,218.11a20.19,20.19,0,1,1-20.18,20.19A20.1,20.1,0,0,1,534.66,218.11Zm-9,20.19a9.72,9.72,0,1,0,9.72-9.72A9.42,9.42,0,0,0,525.69,238.3Z"/></g></svg>